<?xml version="1.0" standalone="no"?>
<!DOCTYPE svg PUBLIC "-//W3C//DTD SVG 1.1//EN" "http://www.w3.org/Graphics/SVG/1.1/DTD/svg11.dtd" >
<svg>
<metadata>
Created by FontForge 20090622 at Sun Sep 20 05:47:30 2015
 By deploy user
The programs to draw the splines of this font are copyright &#194;&#169; 1999 by George Williams
</metadata>
<defs>
<font id="Parisish" horiz-adv-x="398" >
  <font-face 
    font-family="Parisish"
    font-weight="400"
    font-stretch="normal"
    units-per-em="1000"
    panose-1="0 0 4 0 0 0 0 0 0 0"
    ascent="800"
    descent="-200"
    x-height="272"
    cap-height="687"
    bbox="-251 -213.048 922 823.321"
    underline-thickness="20"
    underline-position="-123"
    unicode-range="U+0020-U+F002"
  />
<missing-glyph horiz-adv-x="500" 
d="M63 0v800h375v-800h-375zM125 63h250v675h-250v-675z" />
    <glyph glyph-name=".notdef" horiz-adv-x="500" 
d="M63 0v800h375v-800h-375zM125 63h250v675h-250v-675z" />
    <glyph glyph-name=".null" horiz-adv-x="0" 
 />
    <glyph glyph-name="nonmarkingreturn" horiz-adv-x="202" 
 />
    <glyph glyph-name="space" unicode=" " horiz-adv-x="202" 
 />
    <glyph glyph-name="exclam" unicode="!" horiz-adv-x="244" 
d="M57 50q0 20 14.5 34.5t35.5 14.5q20 0 34.5 -14.5t14.5 -34.5q0 -21 -14.5 -35.5t-34.5 -14.5q-21 0 -35.5 14.5t-14.5 35.5zM104 604q49 0 49 -25q0 -3 -6 -38q-7 -43 -11 -77q-18 -147 -18 -296q0 -24 -13 -24q-12 0 -12 24q0 121 -22 301q-4 35 -11 76q-5 33 -5 34
q0 25 49 25z" />
    <glyph glyph-name="quotedbl" unicode="&#x22;" horiz-adv-x="337" 
d="M160 713q-2 9 5.5 16.5t16.5 7.5q25 0 23 -22q-8 -56 -19 -112q-2 -7 -4 -6q-2 0 -3 6q-3 20 -19 110zM62 713q-2 9 5.5 16.5t16.5 7.5q25 0 23 -22q-8 -56 -19 -112q-2 -7 -4 -6q-2 0 -3 6q-3 20 -19 110z" />
    <glyph glyph-name="numbersign" unicode="#" horiz-adv-x="622" 
d="M373 350h-116q-17 0 -19 -14l-23 -117q-4 -16 11 -16h115q20 0 24 16l23 117q2 14 -15 14zM562 363q0 -11 -7 -13h-18h-107q-12 0 -14 -12l-24 -119q-3 -16 16 -16h91q15 0 18 -1q7 -2 7 -13q0 -9 -3.5 -11t-21.5 -2h-97q-19 0 -21 -15l-28 -138q-4 -19 -7 -23.5
t-11 -1.5q-10 3 -10 4q-3 4 1 21l26 135q4 18 -16 18h-109q-21 0 -25 -18l-26 -134q-4 -19 -7 -23t-12 -2q-9 3 -10 5q-2 4 1 21l27 133q3 18 -15 18h-85h-18q-7 2 -7 13t7 13q3 1 18 1h92q17 0 20 16l23 118q3 13 -15 13h-82h-18q-7 2 -7 13t7 13q3 1 18 1h87q18 0 21 16
l23 115q4 19 7 23t12 2q9 -3 10 -5q2 -4 -1 -21l-23 -114q-3 -16 10 -16h122q15 0 18 15l23 114q3 19 6.5 23.5t11.5 1.5q9 -3 10 -4q2 -4 -1 -21l-23 -115q-3 -14 12 -14h99q15 0 18 -1q7 -2 7 -13z" />
    <glyph glyph-name="dollar" unicode="$" horiz-adv-x="558" 
d="M221 538q-73 -21 -73 -77q0 -51 59 -79q22 -11 24 11l8 124q1 14 -5 18.5t-13 2.5zM296 548q-18 0 -22.5 -6.5t-5.5 -22.5l-10 -129q-1 -20 6 -27q3 -3 20 -9q14 -5 20 -5q14 0 16 23l10 144q2 32 -34 32zM345 30q87 26 91 97q3 58 -71 91q-14 6 -19 6q-9 0 -11 -21
l-10 -153q-2 -17 4 -21q4 -3 16 1zM267 19q16 0 22 4.5t8 22.5l11 164q2 22 -6 30q-3 4 -24 12q-10 4 -15 4q-14 0 -16 -30l-13 -178q-1 -21 6 -26q4 -3 27 -3zM56 152q0 24 16 24q14 0 14 -26q0 -82 88 -115q14 -6 20 -6q11 0 13 19l13 197q2 20 -8 30q-4 4 -20 12
q-101 49 -101 138q0 99 122 136q30 10 32 34l4 64q2 18 4.5 21t11.5 3t11 -4t1 -22l-4 -59q-2 -24 27 -24q24 0 29 3.5t6 17.5l5 64q1 18 3.5 21t11.5 3t11 -4t1 -22l-5 -71q-1 -21 20 -33q45 -24 67 -65q9 -18 -6 -23q-12 -4 -18 7q-16 30 -44 50q-7 4 -12 4q-11 0 -13 -19
l-10 -144q-1 -23 4 -31q3 -4 19 -11q131 -60 125 -162q-3 -55 -45.5 -97.5t-103.5 -57.5q-24 -7 -26 -29l-7 -101q-1 -18 -3.5 -21t-11.5 -3q-9 1 -11 4.5t-1 21.5l6 95q2 16 -2.5 19.5t-21.5 3.5q-26 0 -30 -2q-7 -4 -8 -24l-7 -94q-1 -18 -3.5 -21t-12.5 -3q-8 0 -10.5 4
t-0.5 22l6 99q2 17 -6 24q-4 3 -21 9q-118 38 -118 144z" />
    <glyph glyph-name="percent" unicode="%" horiz-adv-x="651" 
d="M294 157q0 71 42.5 122t102.5 51q65 0 101 -52q33 -46 33 -118q0 -73 -32 -121q-37 -53 -103 -53q-71 0 -111 57q-33 49 -33 114zM350 152q0 -153 90 -153q57 0 89 51q27 44 27 109q0 61 -25 104q-30 50 -80 50q-101 0 -101 -161zM48 515q0 70 43 121t102 51
q66 0 102 -51q33 -47 33 -118q0 -73 -33 -121q-36 -54 -102 -54q-71 0 -111 58q-34 48 -34 114zM105 509q0 -152 90 -152q57 0 88 50q28 45 28 110q0 60 -25 104q-30 49 -81 49q-100 0 -100 -161zM144 -7q-8 4 -8 9t7 19l316 642q7 14 8 15q6 6 15 1q9 -4 9 -9t-7 -19
l-316 -642q-7 -14 -9 -15q-5 -6 -15 -1z" />
    <glyph glyph-name="ampersand" unicode="&#x26;" horiz-adv-x="700" 
d="M421 137q-99 105 -174 212q-10 15 -28 5q-127 -70 -127 -186q0 -68 45.5 -112t115.5 -44q60 0 103 28q33 22 67 70q10 14 -2 27zM334 438q91 52 91 134q0 43 -34 73t-79 30q-32 0 -55 -25t-23 -58t13 -62q7 -14 33 -56t37 -42q7 0 17 6zM559 3q-47 41 -94 88
q-12 12 -22 -1q-79 -103 -195 -103q-83 0 -136.5 55t-53.5 135q0 118 141 197q14 8 14 16q0 9 -15 34q-47 77 -47 132q0 62 45 105.5t108 43.5q60 0 105 -38t45 -95q0 -94 -114 -159q-14 -8 -2 -24q62 -84 137 -167q7 -7 12 -7q6 0 16 12l49 65t49 50q13 9 22 0
q11 -11 -6 -26q-43 -38 -90 -104q-12 -17 -12 -25t8 -16q61 -63 104 -98q9 -7 9 -14q0 -5 -25 -33t-39 -28q-7 0 -13 5z" />
    <glyph glyph-name="quotesingle" unicode="'" horiz-adv-x="337" 
d="M62 713q-2 9 5.5 16.5t16.5 7.5q25 0 23 -22q-8 -56 -19 -112q-2 -7 -4 -6q-2 0 -3 6q-3 20 -19 110z" />
    <glyph glyph-name="parenleft" unicode="(" horiz-adv-x="355" 
d="M56 266q-3 -147 70 -254q76 -112 212 -148q14 -3 21 -3q12 0 7 7q-4 6 -18 12q-105 45 -148 150q-34 84 -31 222q2 155 38 247q46 119 153 163q20 8 20 14q0 7 -15 7q-6 0 -12 -2q-127 -42 -209 -153q-85 -116 -88 -262z" />
    <glyph glyph-name="parenright" unicode=")" horiz-adv-x="476" 
d="M374 266q2 -147 -71 -254q-75 -112 -211 -148q-14 -3 -21 -3q-12 0 -7 7q4 6 17 12q106 45 149 150q33 84 31 222q-3 155 -38 247q-46 119 -153 163q-20 8 -20 14q0 7 14 7q7 0 12 -2q127 -42 210 -153q85 -116 88 -262z" />
    <glyph glyph-name="asterisk" unicode="*" horiz-adv-x="378" 
d="M243 273q30 18 30 44q0 16 -11 27t-29 11q-15 0 -32 -9q0 53 -42 53t-42 -53q-17 9 -32 9q-18 0 -29 -11t-11 -27q0 -26 30 -44q-30 -18 -30 -44q0 -16 11 -27t29 -11q15 0 32 9q0 -53 42 -53t42 53q17 -9 32 -9q18 0 29 11t11 27q0 26 -30 44z" />
    <glyph glyph-name="plus" unicode="+" horiz-adv-x="383" 
d="M266 145q0 -23 -25 -23h-65v-69q0 -25 -24 -25q-23 0 -23 25v69h-65q-25 0 -25 23q0 24 25 24h65v61q0 25 23 25q24 0 24 -25v-61h65q25 0 25 -24z" />
    <glyph glyph-name="comma" unicode="," horiz-adv-x="276" 
d="M68 -89q53 38 62 74q3 13 -11 15h-14q-21 0 -35.5 14.5t-14.5 35.5q0 20 14.5 34.5t35.5 14.5q22 0 40 -19q20 -22 20 -52q0 -46 -27 -81q-10 -14 -52 -52q-6 -6 -13 -6q-11 0 -11 11q0 6 6 11z" />
    <glyph glyph-name="hyphen" unicode="-" horiz-adv-x="383" 
d="M266 145q0 -34 -25 -34h-177q-25 0 -25 34q0 35 25 35h177q25 0 25 -35z" />
    <glyph glyph-name="hyphen" unicode="&#x2010;" horiz-adv-x="383" 
d="M266 145q0 -34 -25 -34h-177q-25 0 -25 34q0 35 25 35h177q25 0 25 -35z" />
    <glyph glyph-name="period" unicode="." horiz-adv-x="268" 
d="M57 50q0 20 14.5 34.5t35.5 14.5q20 0 34.5 -14.5t14.5 -34.5q0 -21 -14.5 -35.5t-34.5 -14.5q-21 0 -35.5 14.5t-14.5 35.5z" />
    <glyph glyph-name="slash" unicode="/" horiz-adv-x="757" 
d="M312 340q58 160 109 235q85 125 201 125q42 0 63 -15q9 -6 9 -14q0 -14 -17 -14q-6 0 -13 3q-17 7 -35 7q-57 0 -98 -54q-31 -42 -61 -128l-48 -151q-118 -349 -353 -349q-31 0 -55 15q-7 4 -7 10q0 13 15 13q5 0 10 -3q13 -7 40 -7q67 0 116 53q38 42 72 126z" />
    <glyph glyph-name="zero" unicode="0" horiz-adv-x="616" 
d="M43 288q0 118 71.5 203t170.5 85q109 0 170 -86q55 -77 55 -197q0 -122 -54 -202q-62 -90 -172 -90q-118 0 -185 97q-56 81 -56 190zM137 279q0 -255 150 -255q95 0 149 85q46 74 46 182q0 102 -43 175q-49 82 -134 82q-168 0 -168 -269z" />
    <glyph glyph-name="one" unicode="1" horiz-adv-x="297" 
d="M55 485q-9 -3 -16 1t-7 11q0 8 13 13q61 25 94 40q11 5 21 5q23 0 23 -22v-508q0 -25 -43 -25t-43 25v448q0 22 -11 22q-4 0 -10 -2.5t-21 -7.5z" />
    <glyph glyph-name="two" unicode="2" horiz-adv-x="584" 
d="M209 62q-31 12 -57 12q-18 0 -32.5 -10t-14.5 -26q0 -19 36 -19q34 0 69 18q10 5 10 13t-11 12zM147 440q5 -6 1 -17q-3 -11 -12 -11q-16 0 -16 13q0 7 4 20q42 124 187 124q72 0 124.5 -54t52.5 -124q0 -77 -60 -171q-55 -86 -135 -152q-15 -13 0 -20q57 -27 102 -27
q61 0 101 59q5 8 11 8q7 0 4 -13q-20 -75 -124 -75q-48 0 -117 34q-13 6 -27 -3q-61 -38 -103 -38q-21 0 -38 12q-20 14 -20 34q0 26 22.5 41.5t51.5 15.5q34 0 75 -18q24 -10 35 0q57 56 93 143.5t36 174.5q0 146 -103 146q-48 0 -88 -29t-57 -73z" />
    <glyph glyph-name="three" unicode="3" horiz-adv-x="553" 
d="M255 332q-36 0 -34 -15q2 -14 27 -14q26 0 43 11q13 8 -1.5 13t-34.5 5zM40 120q-1 5 -1 9q0 18 12 18q8 0 12 -14q32 -113 168 -113q66 0 100 41t34 108q0 92 -42 135q-38 -22 -71 -22q-59 0 -59 33q0 37 63 37q31 0 61 -8q13 28 13 79q0 122 -81 122q-49 0 -86 -24
t-53 -67q-2 -7 -11 -7q-13 0 -13 14q0 4 2 9q14 46 62 74q45 26 102 26q65 0 113.5 -39t48.5 -99q0 -51 -48 -96q-9 -9 -1 -13q90 -52 90 -152q0 -84 -74 -131q-65 -40 -159 -40q-67 0 -114 29q-52 32 -68 91z" />
    <glyph glyph-name="four" unicode="4" horiz-adv-x="565" 
d="M330 173v246q0 18 -9 18q-4 0 -9 -6q-44 -46 -201 -232q-4 -5 -3 -11q1 -7 9 -6q22 2 43 2q40 0 158 -23q12 -3 12 12zM504 165q-49 -24 -79 -31q-14 -3 -14 -17v-103q0 -16 -37 -17q-44 -2 -44 21v97q0 17 -14 20q-124 24 -144 24q-57 0 -106 -14q-21 -6 -21 11
q0 6 5 11l334 393q2 2 6 2q6 0 13.5 -5.5t7.5 -12.5v-371q0 -14 13 -12q14 3 69 26q13 6 18 -5t-7 -17z" />
    <glyph glyph-name="five" unicode="5" horiz-adv-x="520" 
d="M99 298q-7 -19 3 -19q6 0 9 21q1 6 4 18v0l-3 3q-3 -3 -7.5 -12zM52 102q-2 5 -2 9q0 12 11 12q10 0 14 -9q44 -95 162 -95q132 0 132 176q0 177 -118 177q-43 0 -87 -18q-21 -9 -24 -29q-5 -35 -8 -44q-9 -25 -30 -25q-27 0 -27 36q0 30 36 58q7 5 8 16q4 52 14 160
q2 19 19 29.5t38 8.5q67 -6 106 -6q57 0 100 11q20 -11 20 -22q0 -26 -55 -26q-36 0 -80 6q-61 9 -81 11q-39 4 -42 -28q-3 -41 -10 -119q-1 -7 3.5 -11t12.5 -1q43 17 84 17q92 0 154 -56.5t62 -143.5q0 -93 -67 -148q-63 -51 -157 -51q-147 0 -188 105z" />
    <glyph glyph-name="six" unicode="6" horiz-adv-x="562" 
d="M146 229q1 -73 11.5 -113t46.5 -67q41 -31 100 -31q68 0 117.5 52t49.5 123q0 67 -48 109.5t-115 42.5q-97 0 -154 -87q-8 -13 -8 -29zM416 507q-41 36 -99 36q-152 0 -169 -230q-1 -10 7 -10q4 0 9 4q68 62 145 62t132 -48.5t55 -125.5q0 -90 -60 -145.5t-147 -55.5
q-101 0 -170 84q-66 80 -66 189q0 125 68 211q73 91 193 91q71 0 120 -39q13 -11 6 -22q-5 -8 -10 -8q-6 0 -14 7z" />
    <glyph glyph-name="seven" unicode="7" horiz-adv-x="551" 
d="M440 478q31 0 31 16q0 9 -14 9q-18 0 -36 -18q-8 -8 -1 -8q-16 1 20 1zM200 119l68 171q42 97 79 151q10 15 -4 17q-43 5 -117 20q-61 13 -81 13q-30 0 -49 -16t-19 -42q0 -14 14 -38q2 -4 2 -8q0 -14 -11 -14q-4 0 -8 4q-24 22 -24 50q0 46 35 74q32 27 80 27
q57 0 112 -17q84 -25 92 -26q10 -2 18 5q38 37 77 37q37 0 37 -32q0 -43 -69 -43q-37 0 -44 -14q-52 -96 -105 -331l-29 -130q-4 -19 -27 -21q-12 -1 -30.5 -4t-23.5 -3q-21 0 -21 18q0 29 48 152z" />
    <glyph glyph-name="eight" unicode="8" horiz-adv-x="555" 
d="M141 289q11 5 11 12q0 6 -7 11q-60 48 -60 117q0 62 63 106q58 40 126 40q72 0 124 -35q57 -38 57 -100q0 -66 -66 -108q-5 -3 -5 -9t5 -9q110 -61 110 -149q0 -79 -73 -127q-66 -43 -157 -43q-96 0 -154 38q-65 43 -65 123q0 92 91 133zM180 273q-90 -38 -90 -119
q0 -63 53 -101q50 -35 126 -35q63 0 107 26q51 30 51 82q0 59 -75 97l-141 54q-11 4 -31 -4zM320 339q5 -2 24 3q32 8 52 41q18 29 18 59q0 49 -39 78q-33 25 -86 28q-51 3 -91 -20q-44 -25 -44 -67q0 -50 59 -80z" />
    <glyph glyph-name="nine" unicode="9" horiz-adv-x="559" 
d="M406 332q-1 73 -11.5 113t-46.5 66q-41 32 -100 32q-68 0 -117.5 -52.5t-49.5 -122.5q0 -67 48 -109.5t115 -42.5q97 0 154 87q8 12 8 29zM136 54q41 -36 99 -36q152 0 169 230q1 10 -7 10q-4 0 -9 -5q-68 -61 -145 -61t-132 48.5t-55 125.5q0 90 61 147q59 54 146 54
q101 0 170 -84q66 -80 66 -189q0 -126 -68 -211q-73 -91 -193 -91q-71 0 -120 39q-13 10 -6 22q5 8 10 8q6 0 14 -7z" />
    <glyph glyph-name="colon" unicode=":" horiz-adv-x="263" 
d="M57 50q0 20 14.5 34.5t35.5 14.5q20 0 34.5 -14.5t14.5 -34.5q0 -21 -14.5 -35.5t-34.5 -14.5q-21 0 -35.5 14.5t-14.5 35.5zM57 236q0 20 14.5 34.5t35.5 14.5q20 0 34.5 -14.5t14.5 -34.5q0 -21 -14.5 -35.5t-34.5 -14.5q-21 0 -35.5 14.5t-14.5 35.5z" />
    <glyph glyph-name="semicolon" unicode=";" horiz-adv-x="256" 
d="M68 -89q53 38 62 74q3 13 -11 15h-14q-21 0 -35.5 14.5t-14.5 35.5q0 20 14.5 34.5t35.5 14.5q22 0 40 -19q20 -22 20 -52q0 -46 -27 -81q-10 -14 -52 -52q-6 -6 -13 -6q-11 0 -11 11q0 6 6 11zM57 236q0 20 14.5 34.5t35.5 14.5q20 0 34.5 -14.5t14.5 -34.5
q0 -21 -14.5 -35.5t-34.5 -14.5q-21 0 -35.5 14.5t-14.5 35.5z" />
    <glyph glyph-name="less" unicode="&#x3c;" horiz-adv-x="365" 
d="M246 440q12 10 19 10q5 0 12 -8t7 -12q0 -7 -13 -18l-159 -133q-7 -6 -7 -8q0 -1 8 -8l158 -132q13 -11 13 -18q0 -4 -7 -12t-13 -8q-7 0 -19 10l-182 153q-17 14 -3 28z" />
    <glyph glyph-name="equal" unicode="=" horiz-adv-x="383" 
d="M266 245q-2 -3 -3 -6q-7 -17 -22 -17h-177q-25 0 -25 23q0 24 25 24h177q11 0 18 -9q4 -6 6 -14q1 -4 1 -1zM266 128q0 -23 -25 -23h-177q-25 0 -25 23q0 24 25 24h177q25 0 25 -24z" />
    <glyph glyph-name="greater" unicode="&#x3e;" horiz-adv-x="365" 
d="M129 440q-12 10 -19 10q-5 0 -12 -8t-7 -12q0 -7 13 -18l159 -133q7 -6 7 -8q0 -1 -8 -8l-158 -132q-13 -11 -13 -18q0 -4 7 -12t13 -8q7 0 19 10l182 153q17 14 3 28z" />
    <glyph glyph-name="question" unicode="?" horiz-adv-x="399" 
d="M114 50q0 20 14.5 34.5t35.5 14.5q20 0 34.5 -14.5t14.5 -34.5q0 -21 -14.5 -35.5t-34.5 -14.5q-21 0 -35.5 14.5t-14.5 35.5zM333 457q0 -53 -42 -108l-78 -85q-42 -48 -42 -85q0 1 5 -13q2 -5 2 -9q0 -11 -10 -11q-6 0 -14.5 5t-8.5 35q0 26 27 68q41 62 51 83
q27 58 27 123q0 114 -80 114q-35 0 -67 -23q-25 -17 -38 -38q1 -10 -5 -24t-18 -14q-16 0 -16 16q0 7 4 15q43 95 140 95q69 0 116 -39.5t47 -104.5z" />
    <glyph glyph-name="at" unicode="@" horiz-adv-x="740" 
d="M335 450q-46 0 -77 -38t-31 -86q0 -47 26 -81q30 -36 78 -36q31 0 77 43v161q-29 37 -73 37zM409 218q-30 -36 -84 -36t-90 41t-36 96q0 66 39 111t101 45q38 0 69 -23v1q0 16 12 20q5 2 26 2q20 0 25 -2q13 -4 13 -20v-227q0 -39 37 -39q55 0 88 62q29 55 29 129
q0 95 -87 171t-202 76q-117 0 -204.5 -88.5t-87.5 -204.5q0 -110 86 -199q88 -93 206 -93l207 1l17 -27h-224q-132 0 -225 93.5t-93 225.5q0 131 93 224.5t225 93.5q133 0 226 -78.5t93 -194.5q0 -91 -40 -160q-44 -74 -111 -76q-86 -3 -108 76z" />
    <glyph glyph-name="A" unicode="A" horiz-adv-x="739" 
d="M434 272l-109 262q-5 13 -13 13q-6 0 -11 -13l-115 -262q-4 -8 3 -8h242q6 0 3 8zM535 24l-84 206q-2 7 -10 7h-264q-7 0 -10 -7l-95 -220q-3 -9 -12 -9q-15 0 -15 16q0 3 2 7l90 207q2 6 -6 6h-44h-17q-7 2 -8 13q0 11 8 13q2 1 17 1h53q11 0 15 8l175 403q8 17 21 17
t18 -13l278 -650q3 -6 3 -11q0 -19 -52 -18q-54 1 -63 24z" />
    <glyph glyph-name="B" unicode="B" horiz-adv-x="618" 
d="M186 686q105 0 172 -37q81 -44 81 -132q0 -56 -30 -98q-6 -8 7 -16q102 -65 102 -167q0 -137 -109 -193q-85 -43 -255 -43h-49q-55 0 -55 25v637q0 25 55 25q11 0 40 -1h41zM352 410q-40 13 -62 13q-56 0 -56 -21t58 -21q43 0 62 15q11 9 -2 14zM171 25h30q293 0 293 201
q0 101 -95 161q-10 6 -22 -3q-34 -25 -81 -25q-91 0 -91 43t87 43q33 0 71 -15q21 -8 29 6q21 38 21 74q0 152 -241 152q-12 0 -12 -9v-620q0 -8 11 -8z" />
    <glyph glyph-name="C" unicode="C" horiz-adv-x="745" 
d="M659 133q-45 -68 -113 -106q-73 -42 -159 -42q-154 0 -249 96t-95 249q0 148 99.5 256t244.5 108q163 0 244 -105q11 -15 11 -18q0 -15 -13 -15q-7 0 -18 12q-97 104 -212 104q-123 0 -187 -106q-55 -91 -55 -236q0 -148 59 -231q62 -87 181 -87q73 0 136.5 38.5
t104.5 106.5q8 14 13 14q4 0 10 -4q11 -8 11 -9q0 -5 -13 -25z" />
    <glyph glyph-name="D" unicode="D" horiz-adv-x="687" 
d="M160 642v-598q0 -14 14 -14h76q129 0 226 85q103 90 103 225q0 136 -95 230q-91 90 -218 92q-69 1 -97 -6q-9 -2 -9 -14zM105 0q-55 0 -55 25v637q0 25 55 25h163q151 0 245 -98t94 -247q0 -154 -113 -251q-107 -91 -261 -91h-128z" />
    <glyph glyph-name="E" unicode="E" horiz-adv-x="542" 
d="M177 471h255q15 0 18 -1q7 -2 7 -13t-7 -13q-2 -1 -18 -1h-257q-15 0 -15 -13v-391q0 -10 12 -10h241q18 0 21.5 -3t3.5 -12q0 -11 -7 -13q-2 -1 -18 -1h-308q-55 0 -55 25v637q0 25 55 25h293q15 0 18 -1q7 -2 7 -13t-7 -13h-18h-223q-15 0 -15 -14v-160q0 -15 17 -15z
" />
    <glyph glyph-name="F" unicode="F" horiz-adv-x="492" 
d="M177 471h255q15 0 18 -1q7 -2 7 -13t-7 -13q-2 -1 -18 -1h-257q-15 0 -15 -13v-405q0 -25 -55 -25t-55 25v637q0 25 55 25h293q15 0 18 -1q7 -2 7 -13t-7 -13h-18h-223q-15 0 -15 -14v-160q0 -15 17 -15z" />
    <glyph glyph-name="G" unicode="G" horiz-adv-x="771" 
d="M657 194q0 11 -25 11h-241q-23 0 -23 39q0 37 20 37h286q37 0 34 -18q-21 -122 -109 -200t-212 -78q-154 0 -249 96t-95 249q0 148 99.5 256t244.5 108q163 0 244 -105q11 -15 11 -18q0 -15 -13 -15q-7 0 -18 12q-97 104 -212 104q-123 0 -187 -106q-55 -91 -55 -236
q0 -148 59 -231q62 -87 181 -87q74 0 162 53q98 60 98 129z" />
    <glyph glyph-name="H" unicode="H" horiz-adv-x="628" 
d="M524 0q-11 0 -13 7q-1 2 -1 18v378q0 11 -12 11h-328q-10 0 -10 -9v-380q0 -25 -55 -25t-55 25v637q0 25 55 25t55 -25v-212q0 -9 10 -9h329q11 0 11 11v210q0 15 1 18q2 7 13 7t13 -7q1 -3 1 -18v-637q0 -15 -1 -18q-2 -7 -13 -7z" />
    <glyph glyph-name="I" unicode="I" horiz-adv-x="250" 
d="M105 0q-55 0 -55 25v637q0 25 55 25t55 -25v-637q0 -25 -55 -25z" />
    <glyph glyph-name="J" unicode="J" horiz-adv-x="509" 
d="M198 -22q-67 0 -115 39q-52 41 -52 102q0 26 10.5 48.5t26.5 22.5q18 0 18 -20q0 -16 -17 -22q-6 -11 -6 -40q0 -46 41 -76q38 -27 90 -27q53 0 84 35t31 101v521q0 25 55 25t55 -25v-434q0 -118 -57.5 -184t-163.5 -66z" />
    <glyph glyph-name="K" unicode="K" horiz-adv-x="639" 
d="M179 443l287 233q14 12 19 12q3 0 8.5 -6.5t5.5 -9.5q0 -5 -16 -17l-206 -168q-14 -11 -6 -24l269 -435q10 -15 10 -20q0 -4 -7 -8t-10 -4q-5 0 -16 18l-270 435q-6 10 -14 3l-60 -49q-13 -10 -13 -24v-354q0 -25 -55 -25t-55 25v637q0 25 55 25t55 -25v-207q0 -16 9 -16
q4 0 10 4z" />
    <glyph glyph-name="L" unicode="L" horiz-adv-x="473" 
d="M160 662q0 25 -55 25t-55 -25v-637q0 -25 55 -25h307q15 0 18 1q7 2 7 13t-7 13q-2 1 -18 1h-237q-15 0 -15 13v621z" />
    <glyph glyph-name="M" unicode="M" horiz-adv-x="832" 
d="M106 423l229 -403q7 -12 15 -12q7 0 13 10l230 429q5 10 10 10q6 0 6 -15v-417q0 -25 55 -25t55 25v637q0 27 -17 27q-13 0 -21 -15l-281 -522q-6 -11 -12 -11q-7 0 -13 12l-284 517q-12 21 -26 17q-11 -3 -12.5 -6t-1.5 -19v-637q0 -16 1 -18q2 -7 13 -7t13 7q1 3 1 18
v392q0 18 11 18q9 0 16 -12z" />
    <glyph glyph-name="N" unicode="N" horiz-adv-x="658" 
d="M87 678l408 -247q13 -8 15 -8q7 0 7 21v218v18q2 7 13 7t13 -7q1 -3 1 -18v-637q0 -15 -1 -18q-2 -7 -13 -7t-13 7v18v254q0 16 -13 24q-111 70 -399 239q-10 6 -17 6q-10 0 -10 -14v-509q0 -15 -1 -18q-2 -7 -13 -7t-13 7q-1 2 -1 18v637q0 15 1 18q2 7 13 7q9 0 23 -9z
" />
    <glyph glyph-name="O" unicode="O" horiz-adv-x="799" 
d="M43 330q0 148 99.5 256t244.5 108q151 0 240 -101t89 -261q0 -145 -92 -243t-237 -98q-155 0 -249.5 93.5t-94.5 245.5zM157 330q0 -148 59 -231q62 -87 181 -87q121 0 206 95t85 223q0 140 -77 238q-82 104 -212 104q-123 0 -187 -106q-55 -91 -55 -236z" />
    <glyph glyph-name="P" unicode="P" horiz-adv-x="620" 
d="M160 634v-455q4 -9 21 -12q32 -6 59 -5q114 2 192 59q86 63 86 169q0 75 -38.5 134t-104.5 93q-74 38 -181 38q-30 0 -32 -1t-2 -20zM160 25q0 -25 -55 -25t-55 25v637q0 25 55 25q14 0 24 -1q61 -2 80 -3q56 -4 101 -13q93 -18 160 -84q79 -77 79 -188q0 -120 -88 -194
q-82 -69 -204 -72q-37 -1 -73 7q-11 2 -18 -3t-6 -18v-93z" />
    <glyph glyph-name="Q" unicode="Q" horiz-adv-x="799" 
d="M157 330q0 -148 59 -231q62 -87 181 -87q121 0 206 95t85 223q0 140 -77 238q-82 104 -212 104q-123 0 -187 -106q-55 -91 -55 -236zM689 -113q18 5 22 -3q8 -15 -9 -20q-24 -7 -44 -7q-45 1 -84 20q-19 10 -64 42q-28 20 -53 32q-68 32 -134 45q-129 19 -204.5 109
t-75.5 225q0 148 99.5 256t244.5 108q151 0 240 -101t89 -261q0 -126 -71.5 -218.5t-188.5 -115.5q-9 -2 -9 -7q-1 -5 6 -8q53 -26 77 -45q72 -56 127 -56q14 0 32 5z" />
    <glyph glyph-name="R" unicode="R" horiz-adv-x="630" 
d="M356 179q69 25 112 75q50 59 50 136q0 75 -38.5 134t-104.5 93q-74 38 -181 38q-34 0 -34 -20v-610q0 -25 -55 -25t-55 25v637q0 25 55 25q14 0 24 -1q61 -2 80 -3q56 -4 101 -13q93 -18 160 -84q79 -77 79 -188q0 -88 -53 -155q-48 -60 -124 -88q-9 -4 -3 -12
q91 -126 159 -126q31 0 31 -11q0 -16 -29 -16q-72 0 -142 79q-17 19 -46 65q-6 10 -16 8q-25 -5 -50 -5q-33 0 -64 21t-31 47q0 21 17.5 33.5t40.5 12.5q49 0 98 -65q8 -10 19 -7zM209 203q0 -16 20 -27.5t42 -11.5q19 0 39 3q9 2 3 10q-35 46 -74 46q-30 0 -30 -20z" />
    <glyph glyph-name="S" unicode="S" horiz-adv-x="592" 
d="M78 149q-1 16 -15 16t-13 -20q4 -66 65.5 -110t147.5 -44q106 0 174 52q75 56 75 156q0 71 -54 124q-33 34 -123 84q-67 37 -90 59q-42 40 -42 92q0 53 48 84q44 29 105 29q14 0 42 -10q18 -6 22 13q2 10 -12 13q-25 6 -44 7q-91 5 -160 -47q-72 -55 -72 -140
q0 -74 55 -124q14 -13 109 -73q73 -46 92 -64q41 -39 41 -92q0 -65 -52 -102q-47 -34 -115 -34q-70 0 -124 36q-57 37 -60 95z" />
    <glyph glyph-name="T" unicode="T" horiz-adv-x="603" 
d="M516 660h-160v-635q0 -25 -55 -25t-55 25v635h-160h-18q-7 2 -7 13t7 13q3 1 18 1h430q25 0 25 -11q0 -16 -25 -16z" />
    <glyph glyph-name="U" unicode="U" horiz-adv-x="681" 
d="M350 23q101 0 158 84q53 78 53 202v361q0 14 13 16q17 2 17 -18v-344q0 -156 -66 -241q-70 -90 -203 -90q-163 0 -231 129q-41 78 -41 179v361q0 25 55 25t55 -25v-403q0 -98 28 -151q44 -85 162 -85z" />
    <glyph glyph-name="V" unicode="V" horiz-adv-x="736" 
d="M368 155q5 -13 12 -13t12 13l228 524q4 9 12 9q16 0 16 -16q0 -3 -2 -7l-284 -651q-7 -17 -20 -17t-19 13l-277 650q-3 6 -3 11q0 19 51 18q54 -1 64 -24z" />
    <glyph glyph-name="W" unicode="W" horiz-adv-x="968" 
d="M617 172q5 -12 12 -12t12 12l209 507q4 9 12 9q15 0 15 -16q0 -4 -1 -7l-263 -651q-7 -17 -21 -17q-13 0 -18 13l-108 261q-5 14 -11 0l-105 -257q-7 -17 -21 -17q-13 0 -18 13l-266 650q-2 6 -2 11q0 19 51 18q54 -1 63 -24l197 -493q5 -12 12 -12t12 12l60 144
q5 13 -2 28l-128 316q-2 6 -2 11q0 19 51 18q54 -1 63 -24l70 -174q4 -9 9 -9q7 0 11 9l77 188q4 9 12 9q15 0 15 -16q0 -4 -1 -7l-91 -228q-5 -14 0 -27z" />
    <glyph glyph-name="X" unicode="X" horiz-adv-x="660" 
d="M552 687q11 0 11 -6q0 -5 -6 -14l-190 -283q-5 -8 1 -19l220 -347q3 -6 3 -9q0 -9 -60 -9q-35 0 -40 1q-15 3 -24 17l-166 261q-8 13 -17 -1l-177 -261q-12 -18 -27 -17q-13 0 -13 4t6 14l196 289q7 11 0 23l-215 338q-3 4 -3 7q0 13 58 13q34 0 42 -2q19 -3 30 -20
l156 -250q8 -14 17 0l166 249q15 22 32 22z" />
    <glyph glyph-name="Y" unicode="Y" horiz-adv-x="698" 
d="M403 200v-175q0 -25 -55 -25t-55 25v148q-2 10 -9 31l-228 446q-1 3 -9 12q-5 6 -5 12q0 16 45 16h44q23 -3 31 -19l204 -400q7 -13 14 -13q8 0 15 15l191 406q7 14 21 11q7 -2 11 -9q3 -8 0 -15l-208 -434q-7 -15 -7 -32z" />
    <glyph glyph-name="Z" unicode="Z" horiz-adv-x="613" 
d="M392 628l-334 -592q-8 -15 -8 -22q0 -14 22 -14h440q17 0 20 11q5 16 -27 16h-319q-13 0 -13 6q0 5 5 14l340 603q8 14 8 23q0 14 -25 14h-383q-23 0 -23 -16q0 -15 22 -15h259q23 0 23 -10q0 -5 -7 -18z" />
    <glyph glyph-name="bracketleft" unicode="[" horiz-adv-x="324" 
d="M160 39q0 -10 12 -10q87 0 72 0t-13 0q18 0 21.5 -3t3.5 -12q0 -11 -7 -13q-2 -1 -18 -1h-126q-55 0 -55 25v637q0 25 55 25h126q15 0 18 -1q7 -2 7 -13t-7 -13h-18h-56q-15 0 -15 -14v-607z" />
    <glyph glyph-name="backslash" unicode="\" horiz-adv-x="784" 
d="M427 340q-58 160 -109 235q-85 125 -201 125q-41 0 -63 -15q-9 -6 -9 -14q0 -14 17 -14q6 0 13 3q17 7 35 7q57 0 98 -54q32 -42 61 -128l48 -151q119 -349 353 -349q32 0 55 15q7 4 7 10q0 13 -15 13q-5 0 -10 -3q-12 -7 -40 -7q-67 0 -116 53q-38 42 -71 126z" />
    <glyph glyph-name="bracketright" unicode="]" horiz-adv-x="372" 
d="M148 39q0 -10 -12 -10h-59q-18 0 -21.5 -3t-3.5 -12q0 -11 7 -13q2 -1 18 -1h126q55 0 55 25v637q0 25 -55 25h-126q-15 0 -18 -1q-7 -2 -7 -13t7 -13h18h56q15 0 15 -14v-607z" />
    <glyph glyph-name="asciicircum" unicode="^" horiz-adv-x="381" 
d="M219 417l62 -68q13 -14 13 -19q0 -3 -6 -8.5t-9 -5.5q-5 0 -18 15l-62 68q-4 3 -11 3q-8 1 -12 -3l-63 -68q-14 -15 -19 -15q-3 0 -8.5 5.5t-5.5 8.5q0 5 13 19l63 68q13 14 32 14q18 0 31 -14z" />
    <glyph glyph-name="underscore" unicode="_" horiz-adv-x="383" 
d="M371 -67q0 -35 -25 -35h-314q-25 0 -25 35t25 35h314q25 0 25 -35z" />
    <glyph glyph-name="grave" unicode="`" horiz-adv-x="1000" 
d="M187 449q-8 17 -26 6q-17 -10 -5 -25q29 -34 61 -66q4 -4 5 -3t-1 6z" />
    <glyph glyph-name="a" unicode="a" 
d="M186 246q-46 0 -77 -35t-31 -82q0 -46 28 -77.5t76 -31.5q51 0 77 34v155q-28 37 -73 37zM190 271q38 0 69 -23v1q0 16 13 20q4 2 25 2q20 0 25 -2q13 -4 13 -20v-227q0 -16 -13 -20q-5 -2 -25 -2q-21 0 -25 2q-13 4 -13 20q-35 -29 -83 -29q-55 0 -90.5 37.5t-35.5 91.5
q0 66 38.5 107.5t101.5 41.5z" />
    <glyph glyph-name="b" unicode="b" horiz-adv-x="379" 
d="M126 211v-149q17 -42 76 -42q47 0 75.5 35.5t28.5 87.5q0 46 -29.5 77t-66.5 31q-63 0 -84 -40zM88 0q-21 0 -25 2q-13 4 -13 20v648q0 16 13 20q4 2 25 2q20 0 25 -2q13 -4 13 -20v-398q0 -20 15 -13q30 15 71 15q51 0 86.5 -38.5t35.5 -91.5q0 -61 -36 -103
q-39 -45 -100 -45q-40 0 -66 21q-6 5 -6 -6t-38 -11z" />
    <glyph glyph-name="c" unicode="c" horiz-adv-x="317" 
d="M42 134q0 59 42 100.5t103 41.5q36 0 72 -32q5 -5 5 -12q0 -9 -8 -9q-4 0 -9 3q-40 25 -60 25q-45 0 -60 -25q-7 -34 -7 -92t7 -92q15 -25 60 -25q20 0 60 25q5 3 9 3q8 0 8 -9q0 -7 -5 -12q-36 -32 -72 -32q-61 0 -103 41.5t-42 100.5z" />
    <glyph glyph-name="d" unicode="d" horiz-adv-x="393" 
d="M259 211v-149q-17 -42 -76 -42q-47 0 -75.5 35.5t-28.5 87.5q0 46 29.5 77t66.5 31q63 0 84 -40zM297 0q21 0 25 2q13 4 13 20v648q0 16 -13 20q-4 2 -25 2q-20 0 -25 -2q-13 -4 -13 -20v-398q0 -20 -15 -13q-30 15 -71 15q-51 0 -86.5 -38.5t-35.5 -91.5q0 -61 36 -103
q39 -45 100 -45q40 0 66 21q6 5 6 -6t38 -11z" />
    <glyph glyph-name="e" unicode="e" horiz-adv-x="333" 
d="M158 128q35 0 63 19.5t28 50.5q0 53 -69 53q-50 0 -67 -28q-6 -26 -7 -70q-1 -12 20 -19q17 -6 32 -6zM154 106h-16q-12 1 -22 -5.5t-9 -18.5q2 -26 6 -43q9 -15 25 -19q7 -2 34 -2q34 0 70 22q5 3 9 3q8 0 8 -9q0 -7 -5 -12q-33 -29 -82 -29q-61 0 -102.5 39.5
t-41.5 98.5q0 61 44.5 104t115.5 43q33 0 61 -19q30 -22 30 -55q0 -48 -33.5 -73t-91.5 -25z" />
    <glyph glyph-name="f" unicode="f" horiz-adv-x="252" 
d="M159 594v-242q0 -12 16 -12h12.5h16.5q23 0 23 -15q0 -13 -23 -13h-16.5h-12.5q-16 0 -16 -16v-274q0 -16 -13 -20q-5 -2 -25 -2t-25 2q-13 4 -13 20v275q0 15 -18 15h-18q-7 2 -7 13t7 13q3 1 19.5 1t16.5 13v172q0 62 30 111q34 57 90 57q29 0 45 -16q6 -6 6 -12
q0 -11 -12 -11q-6 0 -12 3q-16 8 -27 8q-44 0 -44 -70z" />
    <glyph glyph-name="g" unicode="g" 
d="M184 246q-46 0 -77 -35t-31 -82q0 -46 28 -77.5t76 -31.5q52 0 78 34v155q-28 37 -74 37zM188 271q33 0 61 -18q7 -5 8 2q3 16 25 16q-2 0 13 0h1q16 0 13 0q25 -1 25 -22v-289q0 -45 -33 -86.5t-79 -51.5q-22 -5 -22 13q0 6 8 10q50 23 50 72v97q-1 7 -13 -1
q-31 -20 -71 -20q-55 0 -90.5 37.5t-35.5 91.5q0 66 38.5 107.5t101.5 41.5z" />
    <glyph glyph-name="h" unicode="h" horiz-adv-x="377" 
d="M320 186v-164q0 -16 -13 -20q-5 -2 -25 -2q-21 0 -25 2q-13 4 -13 20v195q0 22 -14 28q-7 3 -29 3t-49 -19t-27 -34v-173q0 -16 -13 -20q-5 -2 -25 -2q-21 0 -25 2q-13 4 -13 20v648q0 16 13 20q4 2 25 2q20 0 25 -2q13 -4 13 -20v-412q1 -17 15 -8q42 27 80 27
q40 0 70 -26.5t30 -64.5z" />
    <glyph glyph-name="i" unicode="i" horiz-adv-x="184" 
d="M87 0q-21 0 -25 2q-13 4 -13 20v228q0 16 13 20q4 2 25 2q20 0 25 -2q13 -4 13 -20v-228q0 -16 -13 -20q-5 -2 -25 -2zM52 380q0 16 11 27t26 11q16 0 27 -11t11 -27t-11 -27t-27 -11q-15 0 -26 11t-11 27z" />
    <glyph glyph-name="j" unicode="j" horiz-adv-x="183" 
d="M14 -178q-22 -5 -22 13q0 6 8 10q50 23 50 72v332q0 16 12 20q5 2 26 2q20 0 25 -2q13 -4 13 -20v-289q0 -45 -33 -86.5t-79 -51.5zM50 380q0 16 11 27t26 11q16 0 27 -11t11 -27t-11 -27t-27 -11q-15 0 -26 11t-11 27z" />
    <glyph glyph-name="k" unicode="k" horiz-adv-x="341" 
d="M274 -5q-5 0 -17 17l-100 134q-6 7 -11 3l-15 -12q-6 -5 -6 -14v-101q0 -16 -13 -20q-5 -2 -25 -2q-21 0 -25 2q-13 4 -13 20v648q0 16 13 20q4 2 25 2q20 0 25 -2q13 -4 13 -20v-491q0 -12 8 -5l100 83q15 13 20 13q3 0 8 -6.5t5 -9.5q0 -5 -15 -18l-73 -60q-6 -5 0 -13
l101 -135q11 -15 11 -19t-6.5 -9t-9.5 -5z" />
    <glyph glyph-name="l" unicode="l" horiz-adv-x="182" 
d="M87 0q-21 0 -25 2q-13 4 -13 20v648q0 16 13 20q4 2 25 2q20 0 25 -2q13 -4 13 -20v-648q0 -16 -13 -20q-5 -2 -25 -2z" />
    <glyph glyph-name="m" unicode="m" horiz-adv-x="553" 
d="M311 186v-164q0 -16 -13 -20q-5 -2 -25 -2q-21 0 -25 2q-13 4 -13 20v195q0 22 -10 28q-6 3 -26 3q-22 0 -47.5 -19t-25.5 -34v-173q0 -16 -13 -20q-5 -2 -25 -2q-21 0 -25 2q-13 4 -13 20v230q0 16 13 20q4 2 25 2q20 0 25 -2q13 -4 13 -20q0 -10 14 -1q41 26 78 26
q44 0 71 -32q16 0 26 6q41 26 80 26q46 0 73 -24t27 -67v-164q0 -16 -13 -20q-5 -2 -25 -2q-21 0 -25 2q-13 4 -13 20v195q0 35 -35 35q-23 0 -47.5 -14.5t-27.5 -33.5q2 -9 2 -18z" />
    <glyph glyph-name="n" unicode="n" horiz-adv-x="378" 
d="M321 186v-164q0 -16 -13 -20q-5 -2 -25 -2q-21 0 -25 2q-13 4 -13 20v195q0 22 -14 28q-7 3 -29 3t-49 -19t-27 -34v-173q0 -16 -13 -20q-5 -2 -25 -2q-21 0 -25 2q-13 4 -13 20v230q0 16 13 20q4 2 25 2q20 0 25 -2q13 -4 13 -20q0 -9 2 -9t13 7q42 27 80 27
q40 0 70 -26.5t30 -64.5z" />
    <glyph glyph-name="o" unicode="o" horiz-adv-x="386" 
d="M46 134q0 59 42.5 100.5t102.5 41.5t102.5 -41.5t42.5 -100.5t-42.5 -100.5t-102.5 -41.5t-102.5 41.5t-42.5 100.5zM131 226q-7 -34 -7 -92t7 -92q15 -25 60 -25q53 0 85.5 33t32.5 83t-32 84t-86 34q-45 0 -60 -25z" />
    <glyph glyph-name="p" unicode="p" horiz-adv-x="381" 
d="M126 61v149q17 42 76 42q46 0 75 -32q26 -30 26 -72q0 -50 -29.5 -87.5t-71.5 -37.5q-56 0 -76 38zM88 272q-21 0 -25 -1q-13 -4 -13 -21v-398q0 -16 13 -20q4 -2 25 -2q20 0 25 2q13 4 13 20v148q0 21 15 13q27 -13 63 -13q57 0 94 48q33 43 33 99t-35.5 92.5
t-97.5 36.5q-40 0 -66 -21q-6 -5 -6 6t-38 11z" />
    <glyph glyph-name="q" unicode="q" horiz-adv-x="385" 
d="M251 61v149q-17 42 -76 42q-46 0 -73.5 -31t-27.5 -73q0 -50 29.5 -87.5t71.5 -37.5q56 0 76 38zM289 272q21 0 25 -1q13 -4 13 -21v-398q0 -16 -13 -20q-4 -2 -25 -2q-20 0 -25 2q-13 4 -13 20v148q0 21 -15 13q-27 -13 -63 -13q-57 0 -94 48q-33 43 -33 99t35.5 92.5
t97.5 36.5q40 0 66 -21q6 -5 6 6t38 11z" />
    <glyph glyph-name="r" unicode="r" horiz-adv-x="325" 
d="M238 206q0 18 -14 31.5t-36 13.5q-21 0 -41.5 -20t-20.5 -36v-173q0 -16 -13 -20q-5 -2 -25 -2q-21 0 -25 2q-13 4 -13 20v230q0 16 13 20q4 2 25 2q20 0 25 -2q13 -4 13 -20q34 25 65 25q36 0 60 -25q20 -21 18 -43q-3 -30 -27 -54.5t-54 -20.5q-18 2 -18 11q0 14 17 14
q21 0 36 13t15 34z" />
    <glyph glyph-name="s" unicode="s" horiz-adv-x="305" 
d="M148 277q49 0 74 -23q5 -4 5 -10q0 -11 -12 -11q-6 0 -13 4q-24 16 -51 16q-42 0 -42 -25q0 -12 57 -52q51 -36 56 -40q25 -24 25 -54q0 -36 -32 -61t-73 -25q-55 0 -86 33q-6 7 -6 13q0 12 12 12q6 0 11 -5q33 -30 60 -30q62 0 62 29q0 18 -64 64l-53 38q-26 23 -26 51
q0 33 29.5 54.5t66.5 21.5z" />
    <glyph glyph-name="t" unicode="t" horiz-adv-x="217" 
d="M54 297q0 15 -18 15h-18q-7 2 -7 13t7 13q3 1 19.5 1t16.5 13v154q0 24 39 42q10 5 19 5q18 0 18 -21v-180q0 -12 16 -12h11.5h15.5q22 0 22 -15q0 -13 -22 -13h-15.5h-11.5q-16 0 -16 -16v-274q0 -16 -13 -20q-5 -2 -25 -2t-25 2q-13 4 -13 20v275z" />
    <glyph glyph-name="u" unicode="u" horiz-adv-x="379" 
d="M50 88v164q0 16 13 21q5 1 25 1q21 0 25 -2q13 -4 13 -20v-195q0 -22 14 -28q7 -3 29 -3t49 19t27 34v173q0 16 13 21q5 1 25 1q21 0 25 -2q13 -4 13 -20v-230q0 -16 -13 -20q-4 -2 -25 -2q-20 0 -25 2q-13 4 -13 20q0 9 -2 9t-13 -7q-42 -27 -80 -27q-40 0 -70 26.5
t-30 64.5z" />
    <glyph glyph-name="v" unicode="v" horiz-adv-x="372" 
d="M40 248q-3 6 -3 11q0 15 33 15h27q15 -2 21 -14l82 -150q9 -17 18 0l77 156q4 8 12 8q17 0 17 -16q0 -3 -2 -6l-118 -241q-6 -12 -15 -12q-8 0 -15 11z" />
    <glyph glyph-name="w" unicode="w" horiz-adv-x="508" 
d="M37 250q-1 3 -1 5q0 18 32 18q40 0 46 -14l59 -137q9 -18 17 1l64 141q4 9 12 9t12 -9l79 -147q3 -5 8 -3q6 1 9 9l57 142q3 8 12 8q17 0 17 -16q0 -2 -1 -5l-99 -243q-4 -10 -14 -10q-8 0 -12 7l-72 137q-6 12 -15 12t-16 -14l-59 -132q-4 -9 -13 -9t-14 10z" />
    <glyph glyph-name="x" unicode="x" horiz-adv-x="365" 
d="M273 244l-62 -71q-9 -10 -1 -20l99 -125q6 -6 6 -12q0 -16 -32 -16q-40 0 -46 7l-74 93q-8 10 -15 1l-83 -93q-7 -8 -14 -8q-11 0 -11 14q0 9 6 16l83 93q8 10 0 20l-82 101q-5 7 -5 13q0 16 21 16q50 0 56 -8l55 -67q10 -12 19 -2l61 70q6 6 12 6q13 0 13 -14
q0 -7 -6 -14z" />
    <glyph glyph-name="y" unicode="y" horiz-adv-x="379" 
d="M209 -172q-22 -5 -22 12q0 7 8 11q50 22 50 72v102q0 9 -3 9q-1 0 -12 -7q-42 -27 -80 -27q-40 0 -70 26.5t-30 64.5v164q0 16 13 20q5 2 25 2q21 -1 25 -2q13 -4 13 -20v-195q0 -22 14 -28q7 -3 29 -3t49 19t27 34v173q0 16 13 20q4 1 25 2q20 0 25 -2q13 -4 13 -20
v-289q0 -46 -33 -87.5t-79 -50.5z" />
    <glyph glyph-name="z" unicode="z" horiz-adv-x="344" 
d="M146 44q-3 -5 -3 -12t5 -7h113q22 0 22 -11q0 -14 -21 -14h-197q-14 0 -15 12q-1 6 3 11l137 205q3 5 3 12t-5 7h-95q-21 0 -22 11q-1 14 21 14h179q14 0 15 -12q1 -6 -3 -11z" />
    <glyph glyph-name="braceleft" unicode="{" horiz-adv-x="346" 
d="M248 -213q-52 0 -87 31q-43 38 -43 91v188q0 51 -1 59q-5 30 -27 45q-18 13 -43 14v28q22 7 40 24q22 21 28 51q3 16 3 62v172q0 50 43 87q36 31 82 31h42v-30h-42q-28 0 -50.5 -19.5t-25.5 -49.5q1 8 1 -56v-156q0 -40 -2 -52q-4 -25 -21 -46t-41 -32q23 -4 42 -21
q16 -15 20 -38q2 -10 2 -47v-181q0 -42 4 -59q6 -29 29.5 -46.5t46.5 -18.5l37 -1v-30h-37z" />
    <glyph glyph-name="bar" unicode="|" horiz-adv-x="172" 
d="M59 0q-7 0 -8 2t-1 20v648q0 18 1 20t8 2t8.5 -2t1.5 -20v-648q0 -18 -1.5 -20t-8.5 -2z" />
    <glyph glyph-name="braceright" unicode="}" horiz-adv-x="346" 
d="M65 -213q52 0 88 31q42 36 42 91v188q0 51 1 59q5 30 28 45q19 13 42 14v28q-23 8 -40 24q-22 21 -28 51q-3 16 -3 62v172q0 50 -42 87q-36 31 -83 31h-42v-30h42q28 0 52 -21q21 -18 24 -47v-57v-156q0 -54 9 -77q13 -34 54 -53q-24 -4 -41 -20t-21 -39q-1 -9 -1 -47
v-181q0 -42 -4 -59q-7 -29 -30 -46.5t-47 -18.5l-37 -1v-30h37z" />
    <glyph glyph-name="asciitilde" unicode="~" horiz-adv-x="383" 
d="M50 186q25 15 57 11q18 -2 45.5 -10t45.5 -10q35 -5 58 12q5 4 10 4q7 0 7 -6q0 -7 -9 -15q-28 -22 -67 -17q-19 2 -47 10t-46 10q-13 2 -31.5 -4.5t-24.5 -6.5q-7 0 -7 8t9 14z" />
    <glyph glyph-name="nonbreakingspace" unicode="&#xa0;" horiz-adv-x="202" 
 />
    <glyph glyph-name="exclamdown" unicode="&#xa1;" horiz-adv-x="240" 
d="M154 555q0 -21 -14.5 -35.5t-34.5 -14.5q-21 0 -35.5 14.5t-14.5 35.5q0 20 14.5 34.5t35.5 14.5q20 0 34.5 -14.5t14.5 -34.5zM107 0q-49 0 -49 25q0 3 6 38q7 43 11 77q18 147 18 296q0 24 13 24q12 0 12 -24q0 -121 22 -301q4 -35 11 -76q5 -33 5 -34q0 -25 -49 -25z
" />
    <glyph glyph-name="cent" unicode="&#xa2;" horiz-adv-x="406" 
d="M197 423q-36 -6 -58 -34q-10 -46 -10 -123q0 -76 10 -122q12 -20 41 -27q15 -4 17 15l19 283q1 8 -4 9q-3 1 -15 -1zM51 274q0 64 43 116.5t111 64.5q6 1 10 2.5t5 16.5l5 58q1 18 3.5 21t11.5 3t11 -4t1 -22l-4 -56q-1 -15 15 -19q39 -8 71 -34q8 -6 8 -16
q0 -13 -12 -13q-5 0 -12 4q-14 10 -27 18t-30 10q-16 2 -18 -16l-19 -282q-1 -14 13 -14q50 0 94 37q7 6 12 6q10 0 10 -13q0 -10 -7 -16q-18 -16 -52 -28.5t-59 -12.5q-14 0 -15 -18l-5 -61q-1 -17 -3.5 -20.5t-11.5 -3.5q-9 1 -11 5t-1 21l4 65q2 15 -15 20q-58 18 -92 67
t-34 114z" />
    <glyph glyph-name="sterling" unicode="&#xa3;" horiz-adv-x="558" 
d="M146 89q-25 0 -47.5 -14.5t-22.5 -32.5q0 -27 39 -27q44 0 71 47q10 18 -6.5 22.5t-33.5 4.5zM438 447q-4 34 -44.5 62.5t-85.5 28.5q-54 0 -83 -42q-26 -37 -26 -99q0 -43 17 -101q21 -71 23 -87t17 -16q28 0 51 11q6 3 11 3q8 0 8 -6t-9 -13q-23 -18 -60 -18
q-16 0 -17 -13q-3 -30 -11 -58q-4 -13 12 -22q22 -12 37 -19l53 -25.5t56 -12.5q55 0 99 57q1 2 3 2q5 0 10 -6.5t2 -10.5q-39 -64 -113 -64q-33 0 -62 11q-13 4 -58 27q-14 7 -34 20q-16 10 -25 -5q-35 -60 -94 -60q-26 0 -45.5 15.5t-19.5 39.5q0 31 30 49q27 15 64 15
q20 0 39 -5q19 -6 19 17q0 21 -5 41q-3 12 -11 14q-4 2 -23 2q-13 0 -36 -9q-16 -6 -16 6q0 8 11 15q16 10 41 10q12 0 15 3q2 3 -2 11l-44 78q-23 46 -23 91q0 79 57.5 131t137.5 52q57 0 102.5 -32t59.5 -80q7 -24 -10 -25q-15 -1 -18 17z" />
    <glyph glyph-name="currency" unicode="&#xa4;" horiz-adv-x="544" 
d="M225 165q-71 0 -112 47q-38 42 -38 103t38 103q41 47 112 47t113 -47q37 -42 37 -103t-37 -103q-42 -47 -113 -47zM96 472l-47 48l-27 -28l47 -47q-44 -55 -44 -131q0 -77 45 -131q-12 -13 -48 -49l27 -28l49 50q52 -41 127 -41q78 0 132 44l52 -53l28 28l-54 53
q42 54 42 128q0 72 -40 126l52 51l-28 28l-51 -51q-51 46 -133 46q-76 0 -129 -43z" />
    <glyph glyph-name="yen" unicode="&#xa5;" horiz-adv-x="698" 
d="M434 355h-112l44 -84q7 -13 14 -13q8 0 15 15zM486 467h-221l40 -77h145zM642 485q0 -3 -1 0q-7 -18 -24 -18h-95l-37 -77h132q17 0 21 -3.5t4 -14.5q0 -17 -25 -17h-148l-59 -123q-7 -15 -7 -32v-175q0 -25 -55 -25t-55 25v148q-2 10 -9 31l-79 151h-156q-25 0 -25 17
q0 11 4 14.5t21 3.5h138l-39 77h-99q-25 0 -25 18q0 17 25 17h81l-74 148q-1 3 -9 12q-5 6 -5 12q0 16 45 16h44q23 -3 31 -19l86 -169h254l84 177q7 14 21 11q7 -2 11 -9q3 -8 0 -15l-79 -164h78q17 0 24 -17l1 3v-3z" />
    <glyph glyph-name="brokenbar" unicode="&#xa6;" horiz-adv-x="171" 
d="M59 393q-7 0 -8 2t-1 20v255q0 18 1 20t8 2t8.5 -2t1.5 -20v-255q0 -18 -1.5 -20t-8.5 -2zM59 -2q-7 0 -8 2t-1 20v255q0 18 1 20t8 2t8.5 -2t1.5 -20v-255q0 -18 -1.5 -20t-8.5 -2z" />
    <glyph glyph-name="section" unicode="&#xa7;" horiz-adv-x="359" 
d="M177 444q28 0 44 -27.5t16 -63.5q0 -39 -17 -64q-20 -28 -55 -25q-63 5 -63 81q0 39 20.5 69t54.5 30zM238 462q-119 29 -119 120q0 44 25.5 75t68.5 30q23 0 46 -9q19 -7 24 -35h-11q-26 0 -29 -30q-2 -18 9 -29.5t27 -11.5q35 0 40 41q4 34 -19.5 57.5t-62.5 29.5
q-56 9 -108 -6q-65 -27 -76 -93q-2 -12 -2 -22q0 -78 81 -108q-39 -13 -59.5 -45.5t-20.5 -71.5q0 -74 57 -108q138 -38 127 -142q-4 -38 -30.5 -62.5t-63.5 -24.5q-22 0 -46 9q-15 6 -25 35h12q28 0 30 31q1 18 -10 29.5t-27 11.5q-35 0 -40 -41q-4 -34 20 -58t63 -30
q22 -4 41 -4q31 0 66 12q21 7 41 26q29 28 35 66q2 10 2 20q0 46 -32 79q-27 28 -63 33q84 29 84 121q0 76 -55 105z" />
    <glyph glyph-name="dieresis" unicode="&#xa8;" horiz-adv-x="312" 
d="M14 380q0 16 11 27t26 11q16 0 27 -11t11 -27t-11 -27t-27 -11q-15 0 -26 11t-11 27zM191 380q0 16 11 27t26 11q16 0 27 -11t11 -27t-11 -27t-27 -11q-15 0 -26 11t-11 27z" />
    <glyph glyph-name="copyright" unicode="&#xa9;" horiz-adv-x="569" 
d="M407 286q-39 -59 -109 -59q-61 0 -99 38.5t-38 99.5q0 59 39.5 102.5t97.5 43.5q65 0 98 -42q5 -7 3 -11q-4 -5 -11 2q-39 42 -85 42q-49 0 -75 -42q-22 -37 -22 -95q0 -127 96 -127q62 0 97 58q4 7 9 4q5 -4 -1 -14zM280 628q97 0 164 -76.5t67 -184.5
q0 -107 -67 -183.5t-164 -76.5q-96 0 -163.5 76.5t-67.5 183.5q0 108 67.5 184.5t163.5 76.5zM280 598q-82 0 -141.5 -67t-59.5 -164q0 -96 59.5 -163t141.5 -67q83 0 142 67t59 163q0 97 -59 164t-142 67z" />
    <glyph glyph-name="ordfeminine" unicode="&#xaa;" horiz-adv-x="316" 
d="M148 434q-27 0 -45.5 -21t-18.5 -50q0 -27 16.5 -46t45.5 -19q31 0 46 21v92q-17 23 -44 23zM151 449q23 0 41 -15v1q0 13 23 14q23 0 23 -14v-136q0 -13 -23 -13t-23 13q-21 -17 -50 -17q-32 0 -53.5 22.5t-21.5 54.5q0 40 23 65t61 25zM266 200q0 -21 -25 -21h-151
q-25 0 -25 21t25 21h151q25 0 25 -21z" />
    <glyph glyph-name="guillemotleft" unicode="&#xab;" horiz-adv-x="446" 
d="M183 444q8 10 13 10q3 0 8 -9q8 -14 -4 -29l-105 -134q-6 -8 0 -16l105 -133q12 -15 4 -30q-5 -8 -9 -8t-12 10l-121 153q-11 15 -1 29q5 7 122 157zM303 444q8 10 13 10q3 0 8 -9q8 -14 -4 -29l-105 -134q-6 -8 0 -16l105 -133q12 -15 4 -30q-5 -8 -9 -8t-12 10
l-121 153q-11 15 -1 29q5 7 122 157z" />
    <glyph glyph-name="logicalnot" unicode="&#xac;" horiz-adv-x="638" 
d="M35 250v-40h500v-170h40v210h-540z" />
    <glyph glyph-name="minus" unicode="&#xad;" horiz-adv-x="383" 
d="M266 145q0 -34 -25 -34h-177q-25 0 -25 34q0 35 25 35h177q25 0 25 -35z" />
    <glyph glyph-name="minus" unicode="&#x2212;" horiz-adv-x="383" 
d="M266 145q0 -34 -25 -34h-177q-25 0 -25 34q0 35 25 35h177q25 0 25 -35z" />
    <glyph glyph-name="registered" unicode="&#xae;" horiz-adv-x="544" 
d="M288 296q65 23 65 85q0 61 -57 90q-30 16 -73 16q-13 0 -13 -8v-244q0 -10 -22 -10t-22 10v254q0 10 22 10h9q23 0 73 -6q37 -8 64 -34q31 -31 31 -75q0 -71 -70 -97q-4 -2 -2 -5q37 -51 64 -51q12 0 12 -4q0 -6 -11 -6q-39 0 -75 57q-3 4 -7 3q-10 -2 -20 -2
q-13 0 -25.5 8.5t-12.5 19.5q0 18 23 18q20 0 40 -26q3 -4 7 -3zM229 306q0 -16 25 -16q8 0 16 2q3 0 1 3q-14 19 -30 19q-12 0 -12 -8zM260 628q97 0 164.5 -76.5t67.5 -184.5q0 -107 -67.5 -183.5t-164.5 -76.5q-96 0 -163.5 76.5t-67.5 183.5q0 108 67.5 184.5
t163.5 76.5zM260 598q-82 0 -141.5 -67t-59.5 -164q0 -96 59.5 -163t141.5 -67q83 0 142.5 67t59.5 163q0 97 -59.5 164t-142.5 67z" />
    <glyph glyph-name="macron" unicode="&#xaf;" horiz-adv-x="287" 
d="M242 375q0 -11 -7 -13q-2 -1 -18 -1h-149q-15 0 -18 1q-7 2 -7 13t7 13q3 1 18 1h149q15 0 18 -1q7 -2 7 -13z" />
    <glyph glyph-name="macron" unicode="&#x2c9;" horiz-adv-x="287" 
d="M242 375q0 -11 -7 -13q-2 -1 -18 -1h-149q-15 0 -18 1q-7 2 -7 13t7 13q3 1 18 1h149q15 0 18 -1q7 -2 7 -13z" />
    <glyph glyph-name="degree" unicode="&#xb0;" horiz-adv-x="341" 
d="M61 701q0 41 29 70t71 29q41 0 70 -29t29 -70q0 -42 -29 -71t-70 -29q-42 0 -71 29t-29 71zM101 700q0 -24 17.5 -41.5t41.5 -17.5q25 0 42.5 17.5t17.5 41.5q0 25 -17.5 42.5t-42.5 17.5q-24 0 -41.5 -17.5t-17.5 -42.5z" />
    <glyph glyph-name="plusminus" unicode="&#xb1;" horiz-adv-x="331" 
d="M154 321h-121v33h121v102h33v-102h125v-33h-125v-75h125v-33h-125v-3h-33v3h-121v33h121v75z" />
    <glyph glyph-name="twosuperior" unicode="&#xb2;" horiz-adv-x="414" 
d="M149 364q-19 7 -35 7q-29 0 -29 -22q0 -12 22 -12t43 11q7 4 6 9q0 4 -7 7zM111 598q3 -4 1 -11q-2 -6 -8 -6q-9 0 -10 6q-1 4 3 14q26 77 116 77q45 0 77 -33.5t32 -76.5q0 -48 -37 -107q-34 -53 -84 -94q-9 -8 0 -12q36 -17 64 -17q38 0 62 37q4 5 8 4q3 -1 2 -7
q-13 -47 -77 -47q-30 0 -73 21q-8 4 -16 -1q-38 -24 -64 -24q-13 0 -24.5 8t-11.5 20q0 16 13.5 26t32.5 10q21 0 46 -11q15 -7 22 0q35 34 57.5 88.5t22.5 108.5q0 90 -64 90q-30 0 -55 -18t-35 -45z" />
    <glyph glyph-name="threesuperior" unicode="&#xb3;" horiz-adv-x="411" 
d="M212 534q-22 0 -20 -9q1 -8 16 -8t26 6q7 5 -1.5 8t-20.5 3zM83 407q-5 16 6 16q5 0 8 -8q19 -68 101 -68q80 0 80 90q0 55 -25 81q-23 -14 -43 -14q-35 0 -35 20q0 22 38 22q18 0 36 -5q8 17 8 48q0 73 -49 73q-63 0 -83 -54q-2 -6 -9 -4q-8 2 -4 13q8 28 36 44t62 16
q39 0 68 -23t29 -60q0 -30 -28 -57q-6 -5 -1 -8q54 -31 54 -91q0 -51 -45 -79q-38 -24 -95 -24q-89 0 -109 72z" />
    <glyph glyph-name="acute" unicode="&#xb4;" horiz-adv-x="341" 
d="M181 449q8 17 26 6q17 -10 5 -25q-29 -34 -61 -66q-4 -4 -5 -3t1 6z" />
    <glyph glyph-name="mu" unicode="&#xb5;" horiz-adv-x="671" 
d="M327 66q-48 -66 -96 -66q-66 0 -105 75l-27 -184q-5 -33 -33 -33q-14 0 -24.5 10t-8.5 23l80 525q6 42 33 42q16 0 24 -16.5t5 -35.5l-32 -215l-1 -51q-1 -47 21 -82q24 -38 65 -39q56 -1 89 58q4 6 9 16l47 332q5 34 31 34q15 0 24.5 -13.5t6.5 -29.5l-48 -299
q-6 -40 46 -62q8 -4 17 -4q37 0 67 61l26 52l24 -14l-27 -54q-48 -96 -117 -96q-10 0 -20 2q-62 12 -76 64z" />
    <glyph glyph-name="mu" unicode="&#x3bc;" horiz-adv-x="671" 
d="M327 66q-48 -66 -96 -66q-66 0 -105 75l-27 -184q-5 -33 -33 -33q-14 0 -24.5 10t-8.5 23l80 525q6 42 33 42q16 0 24 -16.5t5 -35.5l-32 -215l-1 -51q-1 -47 21 -82q24 -38 65 -39q56 -1 89 58q4 6 9 16l47 332q5 34 31 34q15 0 24.5 -13.5t6.5 -29.5l-48 -299
q-6 -40 46 -62q8 -4 17 -4q37 0 67 61l26 52l24 -14l-27 -54q-48 -96 -117 -96q-10 0 -20 2q-62 12 -76 64z" />
    <glyph glyph-name="paragraph" unicode="&#xb6;" horiz-adv-x="737" 
d="M506 357h36q12 0 12 19v258q0 16 -17 16h-30q-13 0 -13 -14v-267q0 -12 12 -12zM494 308v-293q0 -18 -18 -18h-39q-18 0 -18 18v276q0 32 -17 32h-160q-83 0 -138 49.5t-55 132.5q0 90 76 138q67 42 169 42h317q19 0 19 -18v-652q0 -18 -19 -18h-38q-19 0 -19 18v290
q0 18 -15 18h-33q-12 0 -12 -15zM390 357q10 0 19.5 7.5t9.5 17.5v251q0 18 -22 18h-103q-68 0 -113 -40q-48 -43 -48 -114q0 -58 42.5 -99t101.5 -41h113z" />
    <glyph glyph-name="periodcentered" unicode="&#xb7;" horiz-adv-x="268" 
d="M57 221q0 20 14.5 34.5t35.5 14.5q20 0 34.5 -14.5t14.5 -34.5q0 -21 -14.5 -35.5t-34.5 -14.5q-21 0 -35.5 14.5t-14.5 35.5z" />
    <glyph glyph-name="periodcentered" unicode="&#x2219;" horiz-adv-x="268" 
d="M57 221q0 20 14.5 34.5t35.5 14.5q20 0 34.5 -14.5t14.5 -34.5q0 -21 -14.5 -35.5t-34.5 -14.5q-21 0 -35.5 14.5t-14.5 35.5z" />
    <glyph glyph-name="cedilla" unicode="&#xb8;" horiz-adv-x="40" 
d="M217 -12l28 8v-32h24q29 0 53 -18t25 -43q2 -56 -29 -79q-26 -18 -84 -19l-44 -1v29l48 4q63 6 63 49q0 17 -15.5 27.5t-36.5 10.5h-32v64z" />
    <glyph glyph-name="onesuperior" unicode="&#xb9;" horiz-adv-x="284" 
d="M104 648q-4 -2 -14 -5q-14 -4 -14 7q0 5 8 8l58 25q27 13 27 -10v-315q0 -16 -26 -16q-27 0 -27 16v277q0 17 -12 13z" />
    <glyph glyph-name="ordmasculine" unicode="&#xba;" horiz-adv-x="308" 
d="M82 356q0 35 25.5 60t61.5 25t61.5 -25t25.5 -60q0 -36 -25.5 -60.5t-61.5 -24.5t-61.5 24.5t-25.5 60.5zM133 411q-5 -20 -5 -55t5 -55q9 -15 36 -15q32 0 51 19.5t20 49.5q0 30 -19.5 50.5t-51.5 20.5q-27 0 -36 -15zM266 200q0 -21 -25 -21h-151q-25 0 -25 21t25 21
h151q25 0 25 -21z" />
    <glyph glyph-name="guillemotright" unicode="&#xbb;" horiz-adv-x="446" 
d="M265 444q-7 10 -12 10q-3 0 -8 -9q-8 -14 4 -29l105 -134q6 -8 -1 -16l-104 -133q-12 -15 -4 -30q5 -8 9 -8t12 10l120 153q12 15 2 29q-5 7 -123 157zM146 444q-8 10 -13 10q-3 0 -8 -9q-8 -14 5 -29l104 -134q6 -8 0 -16l-104 -133q-13 -15 -5 -30q5 -8 9 -8q5 0 12 10
l121 153q11 15 2 29q-6 7 -123 157z" />
    <glyph glyph-name="onequarter" unicode="&#xbc;" horiz-adv-x="562" 
d="M76 -7q-9 4 -9 8q0 6 7 20l316 642q8 14 9 15q5 5 15 1q8 -4 8 -9t-7 -19l-316 -642q-7 -13 -8 -15q-5 -5 -15 -1zM104 648q-4 -2 -14 -5q-14 -4 -14 7q0 5 8 8l58 25q27 13 27 -10v-315q0 -16 -26 -16q-27 0 -27 16v277q0 17 -12 13zM389 107v148q0 10 -5 10q-3 0 -6 -3
q-26 -28 -121 -139q-2 -3 -1 -7t5 -4q13 2 26 2q24 0 95 -14q7 -2 7 7zM493 102q-29 -14 -47 -18q-9 -2 -9 -11v-61q0 -10 -22 -11q-26 -1 -26 13v58q0 10 -9 12q-74 15 -86 15q-34 0 -64 -9q-12 -3 -12 7q0 3 3 6l200 236q3 4 10 0q6 -4 6 -9v-223q0 -9 8 -7q9 2 42 15
q8 4 10 -3q3 -6 -4 -10z" />
    <glyph glyph-name="onehalf" unicode="&#xbd;" horiz-adv-x="605" 
d="M76 -7q-9 4 -9 8q0 6 7 20l316 642q8 14 9 15q5 5 15 1q8 -4 8 -9t-7 -19l-316 -642q-7 -13 -8 -15q-5 -5 -15 -1zM104 648q-4 -2 -14 -5q-14 -4 -14 7q0 5 8 8l58 25q27 13 27 -10v-315q0 -16 -26 -16q-27 0 -27 16v277q0 17 -12 13zM338 37q-20 7 -36 7q-29 0 -29 -22
q0 -12 22 -12t43 11q7 4 6 9q0 4 -6 7zM299 271q3 -4 1 -11t-8 -7q-9 0 -10 7q0 4 3 14q26 77 116 77q45 0 77.5 -33.5t32.5 -77.5q0 -47 -38 -106q-34 -53 -83 -94q-10 -8 0 -12q35 -17 63 -17q38 0 63 37q3 5 7 4t2 -7q-13 -47 -77 -47q-30 0 -73 21q-8 4 -16 -1
q-38 -24 -64 -24q-13 0 -24.5 8t-11.5 20q0 16 14 26t32 10q21 0 46 -11q15 -7 22 0q35 34 57.5 88.5t22.5 108.5q0 90 -64 90q-30 0 -54.5 -18t-35.5 -45z" />
    <glyph glyph-name="threequarters" unicode="&#xbe;" horiz-adv-x="675" 
d="M213 -7q-9 4 -9 8q0 6 8 20l316 642q6 13 9.5 16.5t13.5 -0.5q9 -4 9 -9t-8 -19l-316 -642q-6 -13 -8 -15q-5 -5 -15 -1zM526 107v148q0 10 -5 10q-2 0 -5 -3q-26 -28 -121 -139q-2 -3 -2 -7q1 -4 6 -4q13 2 25 2q25 0 95 -14q7 -2 7 7zM631 102q-30 -14 -48 -18
q-8 -2 -8 -11v-61q0 -10 -22 -11q-27 -1 -27 13v58q0 10 -8 12q-74 15 -86 15q-35 0 -64 -9q-12 -3 -12 7q0 3 2 6l201 236q3 4 9 0q7 -4 7 -9v-223q0 -9 8 -7q9 2 41 15q8 4 11 -3q3 -6 -4 -10zM212 534q-22 0 -20 -9q1 -8 16 -8t26 6q7 5 -1.5 8t-20.5 3zM83 407
q-5 16 6 16q5 0 8 -8q19 -68 101 -68q80 0 80 90q0 55 -25 81q-23 -14 -43 -14q-35 0 -35 20q0 22 38 22q18 0 36 -5q8 17 8 48q0 73 -49 73q-63 0 -83 -54q-2 -6 -9 -4q-8 2 -4 13q8 28 36 44t62 16q39 0 68 -23t29 -60q0 -30 -28 -57q-6 -5 -1 -8q54 -31 54 -91
q0 -51 -45 -79q-38 -24 -95 -24q-89 0 -109 72z" />
    <glyph glyph-name="questiondown" unicode="&#xbf;" horiz-adv-x="446" 
d="M265 552q0 -21 -14.5 -35.5t-34.5 -14.5q-21 0 -35.5 14.5t-14.5 35.5q0 20 14.5 34.5t35.5 14.5q20 0 34.5 -14.5t14.5 -34.5zM46 144q0 53 42 108l78 85q42 48 42 85q0 -1 -5 13q-1 5 -1 9q0 11 9 11q6 0 14.5 -5t8.5 -35q0 -26 -27 -68q-41 -62 -50 -83
q-28 -58 -28 -123q0 -114 80 -114q36 0 68 23q24 17 37 38q-1 10 5 24t19 14q15 0 15 -16q0 -7 -4 -15q-43 -95 -140 -95q-69 0 -116 39.5t-47 104.5z" />
    <glyph glyph-name="Agrave" unicode="&#xc0;" horiz-adv-x="739" 
d="M434 272l-109 262q-5 13 -13 13q-6 0 -11 -13l-115 -262q-4 -8 3 -8h242q6 0 3 8zM535 24l-84 206q-2 7 -10 7h-264q-7 0 -10 -7l-95 -220q-3 -9 -12 -9q-15 0 -15 16q0 3 2 7l90 207q2 6 -6 6h-44h-17q-7 2 -8 13q0 11 8 13q2 1 17 1h53q11 0 15 8l175 403q8 17 21 17
t18 -13l278 -650q3 -6 3 -11q0 -19 -52 -18q-54 1 -63 24zM372 808q-8 17 -26 6q-17 -10 -5 -25q29 -34 61 -66q4 -4 5 -3t-1 6z" />
    <glyph glyph-name="Aacute" unicode="&#xc1;" horiz-adv-x="739" 
d="M434 272l-109 262q-5 13 -13 13q-6 0 -11 -13l-115 -262q-4 -8 3 -8h242q6 0 3 8zM535 24l-84 206q-2 7 -10 7h-264q-7 0 -10 -7l-95 -220q-3 -9 -12 -9q-15 0 -15 16q0 3 2 7l90 207q2 6 -6 6h-44h-17q-7 2 -8 13q0 11 8 13q2 1 17 1h53q11 0 15 8l175 403q8 17 21 17
t18 -13l278 -650q3 -6 3 -11q0 -19 -52 -18q-54 1 -63 24zM340 802q8 17 26 6q17 -10 5 -25q-29 -34 -61 -66q-4 -4 -5 -3t1 6z" />
    <glyph glyph-name="Acircumflex" unicode="&#xc2;" horiz-adv-x="739" 
d="M434 272l-109 262q-5 13 -13 13q-6 0 -11 -13l-115 -262q-4 -8 3 -8h242q6 0 3 8zM535 24l-84 206q-2 7 -10 7h-264q-7 0 -10 -7l-95 -220q-3 -9 -12 -9q-15 0 -15 16q0 3 2 7l90 207q2 6 -6 6h-44h-17q-7 2 -8 13q0 11 8 13q2 1 17 1h53q11 0 15 8l175 403q8 17 21 17
t18 -13l278 -650q3 -6 3 -11q0 -19 -52 -18q-54 1 -63 24zM370 790l52 -39q16 -12 16 -17q0 -3 -5 -9.5t-8 -6.5q-5 0 -20 11l-51 39q-5 4 -10 0l-51 -39q-15 -11 -20 -11q-4 0 -8.5 6.5t-4.5 9.5q0 5 16 17l52 39q15 11 21 11q7 0 21 -11z" />
    <glyph glyph-name="Atilde" unicode="&#xc3;" horiz-adv-x="739" 
d="M434 272l-109 262q-5 13 -13 13q-6 0 -11 -13l-115 -262q-4 -8 3 -8h242q6 0 3 8zM535 24l-84 206q-2 7 -10 7h-264q-7 0 -10 -7l-95 -220q-3 -9 -12 -9q-15 0 -15 16q0 3 2 7l90 207q2 6 -6 6h-44h-17q-7 2 -8 13q0 11 8 13q2 1 17 1h53q11 0 15 8l175 403q8 17 21 17
t18 -13l278 -650q3 -6 3 -11q0 -19 -52 -18q-54 1 -63 24zM266 762q21 16 49 12q15 -3 38.5 -11.5t38.5 -10.5q30 -4 49 13q5 5 9 5q6 0 6 -7q0 -8 -8 -16q-23 -23 -57 -18q-16 2 -39.5 10.5t-39.5 10.5q-13 2 -29 -4.5t-18 -6.5q-7 0 -7 8q0 9 8 15z" />
    <glyph glyph-name="Adieresis" unicode="&#xc4;" horiz-adv-x="739" 
d="M434 272l-109 262q-5 13 -13 13q-6 0 -11 -13l-115 -262q-4 -8 3 -8h242q6 0 3 8zM535 24l-84 206q-2 7 -10 7h-264q-7 0 -10 -7l-95 -220q-3 -9 -12 -9q-15 0 -15 16q0 3 2 7l90 207q2 6 -6 6h-44h-17q-7 2 -8 13q0 11 8 13q2 1 17 1h53q11 0 15 8l175 403q8 17 21 17
t18 -13l278 -650q3 -6 3 -11q0 -19 -52 -18q-54 1 -63 24zM228 754q0 16 11 27t26 11q16 0 27 -11t11 -27t-11 -27t-27 -11q-15 0 -26 11t-11 27zM405 754q0 16 11 27t26 11q16 0 27 -11t11 -27t-11 -27t-27 -11q-15 0 -26 11t-11 27z" />
    <glyph glyph-name="Aring" unicode="&#xc5;" horiz-adv-x="739" 
d="M434 272l-109 262q-5 13 -13 13q-6 0 -11 -13l-115 -262q-4 -8 3 -8h242q6 0 3 8zM274 730q0 29 20.5 49.5t49.5 20.5t49.5 -20.5t20.5 -49.5q0 -43 -40 -62q5 -10 273 -639q3 -6 3 -11q0 -19 -52 -18q-54 1 -63 24l-84 206q-2 7 -10 7h-264q-7 0 -10 -7l-95 -220
q-3 -9 -12 -9q-15 0 -15 16q0 3 2 7l90 207q2 6 -6 6h-44h-17q-7 2 -8 13q0 11 8 13q2 1 17 1h53q11 0 15 8l170 391q-51 14 -51 67zM302 730q0 -16 11.5 -28t27.5 -13q8 5 16 2q29 9 29 39q0 18 -12.5 30t-29.5 12t-29.5 -12t-12.5 -30z" />
    <glyph glyph-name="AE" unicode="&#xc6;" horiz-adv-x="769" 
d="M327 281v255q-1 10 -11 10t-15 -12l-115 -262q-4 -8 3 -8h119q19 0 19 17zM454 471h255q16 0 18 -1q7 -2 7 -13t-7 -13q-2 -1 -18 -1h-257q-15 0 -15 -13v-390q0 -11 12 -11h241q18 0 21.5 -3t3.5 -12q0 -11 -7 -13q-2 -1 -18 -1h-308q-55 0 -55 25v197q0 15 -16 15h-134
q-7 0 -10 -7l-95 -220q-3 -9 -12 -9q-15 0 -15 16q0 3 2 7l90 207q2 6 -6 6h-44h-17q-7 2 -8 13q0 11 8 13q2 1 17 1h53q11 0 15 8l183 409q5 6 44 6h293q16 0 18 -1q7 -2 7 -13t-7 -13h-18h-223q-15 0 -15 -14v-160q0 -15 17 -15z" />
    <glyph glyph-name="Ccedilla" unicode="&#xc7;" horiz-adv-x="745" 
d="M405 -15v-21h24q29 0 53 -18t25 -43q2 -57 -30 -79q-25 -18 -83 -19l-44 -1v29l48 4q63 5 63 48q0 18 -16 28.5t-36 10.5h-32v61q-150 4 -242 99.5t-92 245.5q0 148 99.5 256t244.5 108q163 0 244 -105q11 -15 11 -18q0 -15 -13 -15q-7 0 -18 12q-97 104 -212 104
q-123 0 -187 -106q-55 -91 -55 -236q0 -148 59 -231q62 -87 181 -87q73 0 136.5 38.5t104.5 106.5q8 14 13 14q4 0 10 -4q11 -8 11 -9q0 -5 -13 -25q-92 -139 -254 -148z" />
    <glyph glyph-name="Egrave" unicode="&#xc8;" horiz-adv-x="542" 
d="M177 471h255q15 0 18 -1q7 -2 7 -13t-7 -13q-2 -1 -18 -1h-257q-15 0 -15 -13v-391q0 -10 12 -10h241q18 0 21.5 -3t3.5 -12q0 -11 -7 -13q-2 -1 -18 -1h-308q-55 0 -55 25v637q0 25 55 25h293q15 0 18 -1q7 -2 7 -13t-7 -13h-18h-223q-15 0 -15 -14v-160q0 -15 17 -15z
M245 808q-8 17 -26 6q-17 -10 -5 -25q29 -34 61 -66q4 -4 5 -3t-1 6z" />
    <glyph glyph-name="Eacute" unicode="&#xc9;" horiz-adv-x="542" 
d="M177 471h255q15 0 18 -1q7 -2 7 -13t-7 -13q-2 -1 -18 -1h-257q-15 0 -15 -13v-391q0 -10 12 -10h241q18 0 21.5 -3t3.5 -12q0 -11 -7 -13q-2 -1 -18 -1h-308q-55 0 -55 25v637q0 25 55 25h293q15 0 18 -1q7 -2 7 -13t-7 -13h-18h-223q-15 0 -15 -14v-160q0 -15 17 -15z
M250 805q8 17 26 6q17 -10 5 -25q-29 -34 -61 -66q-4 -4 -5 -3t1 6z" />
    <glyph glyph-name="Ecircumflex" unicode="&#xca;" horiz-adv-x="542" 
d="M177 471h255q15 0 18 -1q7 -2 7 -13t-7 -13q-2 -1 -18 -1h-257q-15 0 -15 -13v-391q0 -10 12 -10h241q18 0 21.5 -3t3.5 -12q0 -11 -7 -13q-2 -1 -18 -1h-308q-55 0 -55 25v637q0 25 55 25h293q15 0 18 -1q7 -2 7 -13t-7 -13h-18h-223q-15 0 -15 -14v-160q0 -15 17 -15z
M265 790l52 -39q16 -12 16 -17q0 -3 -5 -9.5t-8 -6.5q-5 0 -20 11l-51 39q-5 4 -10 0l-51 -39q-15 -11 -20 -11q-4 0 -8.5 6.5t-4.5 9.5q0 5 16 17l52 39q15 11 21 11q7 0 21 -11z" />
    <glyph glyph-name="Edieresis" unicode="&#xcb;" horiz-adv-x="542" 
d="M177 471h255q15 0 18 -1q7 -2 7 -13t-7 -13q-2 -1 -18 -1h-257q-15 0 -15 -13v-391q0 -10 12 -10h241q18 0 21.5 -3t3.5 -12q0 -11 -7 -13q-2 -1 -18 -1h-308q-55 0 -55 25v637q0 25 55 25h293q15 0 18 -1q7 -2 7 -13t-7 -13h-18h-223q-15 0 -15 -14v-160q0 -15 17 -15z
M120 761q0 16 11 27t26 11q16 0 27 -11t11 -27t-11 -27t-27 -11q-15 0 -26 11t-11 27zM297 761q0 16 11 27t26 11q16 0 27 -11t11 -27t-11 -27t-27 -11q-15 0 -26 11t-11 27z" />
    <glyph glyph-name="Igrave" unicode="&#xcc;" horiz-adv-x="250" 
d="M105 0q-55 0 -55 25v637q0 25 55 25t55 -25v-637q0 -25 -55 -25zM103 808q-8 17 -26 6q-17 -10 -5 -25q29 -34 61 -66q4 -4 5 -3t-1 6z" />
    <glyph glyph-name="Iacute" unicode="&#xcd;" horiz-adv-x="250" 
d="M105 0q-55 0 -55 25v637q0 25 55 25t55 -25v-637q0 -25 -55 -25zM108 805q8 17 26 6q17 -10 5 -25q-29 -34 -61 -66q-4 -4 -5 -3t1 6z" />
    <glyph glyph-name="Icircumflex" unicode="&#xce;" horiz-adv-x="250" 
d="M105 0q-55 0 -55 25v637q0 25 55 25t55 -25v-637q0 -25 -55 -25zM127 790l52 -39q16 -12 16 -17q0 -3 -5 -9.5t-8 -6.5q-5 0 -20 11l-51 39q-5 4 -10 0l-51 -39q-15 -11 -20 -11q-4 0 -8.5 6.5t-4.5 9.5q0 5 16 17l52 39q15 11 21 11q7 0 21 -11z" />
    <glyph glyph-name="Idieresis" unicode="&#xcf;" horiz-adv-x="250" 
d="M105 0q-55 0 -55 25v637q0 25 55 25t55 -25v-637q0 -25 -55 -25zM-19 754q0 16 11 27t26 11q16 0 27 -11t11 -27t-11 -27t-27 -11q-15 0 -26 11t-11 27zM158 754q0 16 11 27t26 11q16 0 27 -11t11 -27t-11 -27t-27 -11q-15 0 -26 11t-11 27z" />
    <glyph glyph-name="Eth" unicode="&#xd0;" horiz-adv-x="687" 
d="M36 335h-23q-15 0 -18 1q-7 2 -7 13t7 13q2 1 18 1h23q14 0 14 17v282q0 25 55 25h163q151 0 245 -98t94 -247q0 -154 -113 -251q-107 -91 -261 -91h-128q-55 0 -55 25v297q0 13 -14 13zM221 349q0 -11 -7 -13q-3 -1 -18 -1h-21q-15 0 -15 -13v-278q0 -14 14 -14h76
q129 0 226 85q103 90 103 225q0 136 -95 230q-91 90 -218 92q-69 1 -97 -6q-9 -2 -9 -14v-263q0 -16 14 -16h22q15 0 18 -1q7 -2 7 -13z" />
    <glyph glyph-name="Ntilde" unicode="&#xd1;" horiz-adv-x="658" 
d="M87 678l408 -247q13 -8 15 -8q7 0 7 21v218v18q2 7 13 7t13 -7q1 -3 1 -18v-637q0 -15 -1 -18q-2 -7 -13 -7t-13 7v18v254q0 16 -13 24q-111 70 -399 239q-10 6 -17 6q-10 0 -10 -14v-509q0 -15 -1 -18q-2 -7 -13 -7t-13 7q-1 2 -1 18v637q0 15 1 18q2 7 13 7q9 0 23 -9z
M219 759q21 16 49 12q15 -3 38.5 -11.5t38.5 -10.5q30 -4 49 13q5 5 9 5q6 0 6 -7q0 -8 -8 -16q-23 -23 -57 -18q-16 2 -39.5 10.5t-39.5 10.5q-13 2 -29 -4.5t-18 -6.5q-7 0 -7 8q0 9 8 15z" />
    <glyph glyph-name="Ograve" unicode="&#xd2;" horiz-adv-x="799" 
d="M43 330q0 148 99.5 256t244.5 108q151 0 240 -101t89 -261q0 -145 -92 -243t-237 -98q-155 0 -249.5 93.5t-94.5 245.5zM157 330q0 -148 59 -231q62 -87 181 -87q121 0 206 95t85 223q0 140 -77 238q-82 104 -212 104q-123 0 -187 -106q-55 -91 -55 -236zM372 808
q-8 17 -26 6q-17 -10 -5 -25q29 -34 61 -66q4 -4 5 -3t-1 6z" />
    <glyph glyph-name="Oacute" unicode="&#xd3;" horiz-adv-x="799" 
d="M43 330q0 148 99.5 256t244.5 108q151 0 240 -101t89 -261q0 -145 -92 -243t-237 -98q-155 0 -249.5 93.5t-94.5 245.5zM157 330q0 -148 59 -231q62 -87 181 -87q121 0 206 95t85 223q0 140 -77 238q-82 104 -212 104q-123 0 -187 -106q-55 -91 -55 -236zM391 813
q8 17 26 6q17 -10 5 -25q-29 -34 -61 -66q-4 -4 -5 -3t1 6z" />
    <glyph glyph-name="Ocircumflex" unicode="&#xd4;" horiz-adv-x="799" 
d="M43 330q0 148 99.5 256t244.5 108q151 0 240 -101t89 -261q0 -145 -92 -243t-237 -98q-155 0 -249.5 93.5t-94.5 245.5zM157 330q0 -148 59 -231q62 -87 181 -87q121 0 206 95t85 223q0 140 -77 238q-82 104 -212 104q-123 0 -187 -106q-55 -91 -55 -236zM415 790l52 -39
q16 -12 16 -17q0 -3 -5 -9.5t-8 -6.5q-5 0 -20 11l-51 39q-5 4 -10 0l-51 -39q-15 -11 -20 -11q-4 0 -8.5 6.5t-4.5 9.5q0 5 16 17l52 39q15 11 21 11q7 0 21 -11z" />
    <glyph glyph-name="Otilde" unicode="&#xd5;" horiz-adv-x="799" 
d="M43 330q0 148 99.5 256t244.5 108q151 0 240 -101t89 -261q0 -145 -92 -243t-237 -98q-155 0 -249.5 93.5t-94.5 245.5zM157 330q0 -148 59 -231q62 -87 181 -87q121 0 206 95t85 223q0 140 -77 238q-82 104 -212 104q-123 0 -187 -106q-55 -91 -55 -236zM310 763
q21 16 49 12q15 -3 38.5 -11.5t38.5 -10.5q30 -4 49 13q5 5 9 5q6 0 6 -7q0 -8 -8 -16q-23 -23 -57 -18q-16 2 -39.5 10.5t-39.5 10.5q-13 2 -29 -4.5t-18 -6.5q-7 0 -7 8q0 9 8 15z" />
    <glyph glyph-name="Odieresis" unicode="&#xd6;" horiz-adv-x="799" 
d="M43 330q0 148 99.5 256t244.5 108q151 0 240 -101t89 -261q0 -145 -92 -243t-237 -98q-155 0 -249.5 93.5t-94.5 245.5zM157 330q0 -148 59 -231q62 -87 181 -87q121 0 206 95t85 223q0 140 -77 238q-82 104 -212 104q-123 0 -187 -106q-55 -91 -55 -236zM254 757
q0 16 11 27t26 11q16 0 27 -11t11 -27t-11 -27t-27 -11q-15 0 -26 11t-11 27zM431 757q0 16 11 27t26 11q16 0 27 -11t11 -27t-11 -27t-27 -11q-15 0 -26 11t-11 27z" />
    <glyph glyph-name="multiply" unicode="&#xd7;" horiz-adv-x="508" 
d="M393 313l-96 -96l107 -107q9 -9 9 -18t-15.5 -24.5t-25.5 -15.5q-8 0 -17 8l-107 108l-107 -108q-9 -8 -17 -8q-10 0 -25.5 15.5t-15.5 24.5t9 18l107 107l-96 96q-9 9 -9 17q0 9 15.5 24.5t25.5 15.5q9 0 17 -8l96 -96l96 96q8 8 17 8q10 0 25.5 -15.5t15.5 -24.5
q0 -8 -9 -17z" />
    <glyph glyph-name="Oslash" unicode="&#xd8;" horiz-adv-x="799" 
d="M209 110l386 476q-79 86 -196 86q-123 0 -187 -106q-55 -91 -55 -236q0 -138 52 -220zM613 565l-388 -478q62 -75 172 -75q121 0 206 95t85 223q0 137 -75 235zM656 661q12 16 17 16q3 0 9.5 -5t6.5 -9q0 -5 -12 -19l-45 -56q84 -99 84 -256q0 -145 -92 -243t-237 -98
q-113 0 -197 52l-57 -70q-13 -16 -18 -16q-3 0 -9 5.5t-6 8.5q0 5 12 19l55 69q-124 94 -124 271q0 148 99.5 256t244.5 108q138 0 226 -86z" />
    <glyph glyph-name="Ugrave" unicode="&#xd9;" horiz-adv-x="681" 
d="M350 23q101 0 158 84q53 78 53 202v361q0 14 13 16q17 2 17 -18v-344q0 -156 -66 -241q-70 -90 -203 -90q-163 0 -231 129q-41 78 -41 179v361q0 25 55 25t55 -25v-403q0 -98 28 -151q44 -85 162 -85zM339 808q-8 17 -26 6q-17 -10 -5 -25q29 -34 61 -66q4 -4 5 -3t-1 6z
" />
    <glyph glyph-name="Uacute" unicode="&#xda;" horiz-adv-x="681" 
d="M350 23q101 0 158 84q53 78 53 202v361q0 14 13 16q17 2 17 -18v-344q0 -156 -66 -241q-70 -90 -203 -90q-163 0 -231 129q-41 78 -41 179v361q0 25 55 25t55 -25v-403q0 -98 28 -151q44 -85 162 -85zM348 801q8 17 26 6q17 -10 5 -25q-29 -34 -61 -66q-4 -4 -5 -3t1 6z
" />
    <glyph glyph-name="Ucircumflex" unicode="&#xdb;" horiz-adv-x="681" 
d="M350 23q101 0 158 84q53 78 53 202v361q0 14 13 16q17 2 17 -18v-344q0 -156 -66 -241q-70 -90 -203 -90q-163 0 -231 129q-41 78 -41 179v361q0 25 55 25t55 -25v-403q0 -98 28 -151q44 -85 162 -85zM377 790l52 -39q16 -12 16 -17q0 -3 -5 -9.5t-8 -6.5q-5 0 -20 11
l-51 39q-5 4 -10 0l-51 -39q-15 -11 -20 -11q-4 0 -8.5 6.5t-4.5 9.5q0 5 16 17l52 39q15 11 21 11q7 0 21 -11z" />
    <glyph glyph-name="Udieresis" unicode="&#xdc;" horiz-adv-x="681" 
d="M350 23q101 0 158 84q53 78 53 202v361q0 14 13 16q17 2 17 -18v-344q0 -156 -66 -241q-70 -90 -203 -90q-163 0 -231 129q-41 78 -41 179v361q0 25 55 25t55 -25v-403q0 -98 28 -151q44 -85 162 -85zM225 754q0 16 11 27t26 11q16 0 27 -11t11 -27t-11 -27t-27 -11
q-15 0 -26 11t-11 27zM402 754q0 16 11 27t26 11q16 0 27 -11t11 -27t-11 -27t-27 -11q-15 0 -26 11t-11 27z" />
    <glyph glyph-name="Yacute" unicode="&#xdd;" horiz-adv-x="698" 
d="M403 200v-175q0 -25 -55 -25t-55 25v148q-2 10 -9 31l-228 446q-1 3 -9 12q-5 6 -5 12q0 16 45 16h44q23 -3 31 -19l204 -400q7 -13 14 -13q8 0 15 15l191 406q7 14 21 11q7 -2 11 -9q3 -8 0 -15l-208 -434q-7 -15 -7 -32zM369 802q8 17 26 6q17 -10 5 -25
q-29 -34 -61 -66q-4 -4 -5 -3t1 6z" />
    <glyph glyph-name="Thorn" unicode="&#xde;" horiz-adv-x="597" 
d="M160 168q4 -9 21 -12q32 -6 59 -5q106 2 172 53t66 136q0 226 -284 226q-33 0 -34 -5v-393zM105 0q-55 0 -55 25v637q0 25 55 25t55 -25v-66q21 2 44 2q120 0 201 -51q104 -65 104 -199q0 -94 -68 -158q-71 -67 -184 -69q-37 -1 -73 7q-10 2 -18 -5t-6 -16v-82
q0 -25 -55 -25z" />
    <glyph glyph-name="germandbls" unicode="&#xdf;" horiz-adv-x="497" 
d="M159 594v-572q0 -16 -13 -20q-5 -2 -25 -2t-25 2q-13 4 -13 20v502q0 62 30 111q34 57 90 57q29 0 45 -16q6 -6 6 -12q0 -11 -12 -11q-6 0 -12 3q-16 8 -27 8q-44 0 -44 -70zM338 277q49 0 74 -23q4 -4 4 -10q0 -11 -12 -11q-5 0 -12 4q-25 16 -51 16q-42 0 -42 -25
q0 -12 57 -52q51 -36 55 -40q26 -24 26 -54q0 -36 -32 -61t-73 -25q-56 0 -86 33q-6 7 -6 13q0 12 12 12q6 0 11 -5q32 -30 60 -30q62 0 62 29q0 18 -64 64l-53 38q-26 23 -26 51q0 33 29 54.5t67 21.5z" />
    <glyph glyph-name="agrave" unicode="&#xe0;" 
d="M186 246q-46 0 -77 -35t-31 -82q0 -46 28 -77.5t76 -31.5q51 0 77 34v155q-28 37 -73 37zM190 271q38 0 69 -23v1q0 16 13 20q4 2 25 2q20 0 25 -2q13 -4 13 -20v-227q0 -16 -13 -20q-5 -2 -25 -2q-21 0 -25 2q-13 4 -13 20q-35 -29 -83 -29q-55 0 -90.5 37.5t-35.5 91.5
q0 66 38.5 107.5t101.5 41.5zM194 449q-8 17 -26 6q-17 -10 -5 -25q29 -34 61 -66q4 -4 5 -3t-1 6z" />
    <glyph glyph-name="aacute" unicode="&#xe1;" 
d="M186 246q-46 0 -77 -35t-31 -82q0 -46 28 -77.5t76 -31.5q51 0 77 34v155q-28 37 -73 37zM190 271q38 0 69 -23v1q0 16 13 20q4 2 25 2q20 0 25 -2q13 -4 13 -20v-227q0 -16 -13 -20q-5 -2 -25 -2q-21 0 -25 2q-13 4 -13 20q-35 -29 -83 -29q-55 0 -90.5 37.5t-35.5 91.5
q0 66 38.5 107.5t101.5 41.5zM212 449q8 17 26 6q17 -10 5 -25q-29 -34 -61 -66q-4 -4 -5 -3t1 6z" />
    <glyph glyph-name="acircumflex" unicode="&#xe2;" 
d="M186 246q-46 0 -77 -35t-31 -82q0 -46 28 -77.5t76 -31.5q51 0 77 34v155q-28 37 -73 37zM190 271q38 0 69 -23v1q0 16 13 20q4 2 25 2q20 0 25 -2q13 -4 13 -20v-227q0 -16 -13 -20q-5 -2 -25 -2q-21 0 -25 2q-13 4 -13 20q-35 -29 -83 -29q-55 0 -90.5 37.5t-35.5 91.5
q0 66 38.5 107.5t101.5 41.5zM206 412l52 -39q16 -12 16 -17q0 -3 -5 -9.5t-8 -6.5q-5 0 -20 11l-51 39q-5 4 -10 0l-51 -39q-15 -11 -20 -11q-4 0 -8.5 6.5t-4.5 9.5q0 5 16 17l52 39q15 11 21 11q7 0 21 -11z" />
    <glyph glyph-name="atilde" unicode="&#xe3;" 
d="M186 246q-46 0 -77 -35t-31 -82q0 -46 28 -77.5t76 -31.5q51 0 77 34v155q-28 37 -73 37zM190 271q38 0 69 -23v1q0 16 13 20q4 2 25 2q20 0 25 -2q13 -4 13 -20v-227q0 -16 -13 -20q-5 -2 -25 -2q-21 0 -25 2q-13 4 -13 20q-35 -29 -83 -29q-55 0 -90.5 37.5t-35.5 91.5
q0 66 38.5 107.5t101.5 41.5zM109 381q21 16 49 12q15 -3 38.5 -11.5t38.5 -10.5q30 -4 49 13q5 5 9 5q6 0 6 -7q0 -8 -8 -16q-23 -23 -57 -18q-16 2 -39.5 10.5t-39.5 10.5q-13 2 -29 -4.5t-18 -6.5q-7 0 -7 8q0 9 8 15z" />
    <glyph glyph-name="adieresis" unicode="&#xe4;" 
d="M186 246q-46 0 -77 -35t-31 -82q0 -46 28 -77.5t76 -31.5q51 0 77 34v155q-28 37 -73 37zM190 271q38 0 69 -23v1q0 16 13 20q4 2 25 2q20 0 25 -2q13 -4 13 -20v-227q0 -16 -13 -20q-5 -2 -25 -2q-21 0 -25 2q-13 4 -13 20q-35 -29 -83 -29q-55 0 -90.5 37.5t-35.5 91.5
q0 66 38.5 107.5t101.5 41.5zM76 380q0 16 11 27t26 11q16 0 27 -11t11 -27t-11 -27t-27 -11q-15 0 -26 11t-11 27zM253 380q0 16 11 27t26 11q16 0 27 -11t11 -27t-11 -27t-27 -11q-15 0 -26 11t-11 27z" />
    <glyph glyph-name="aring" unicode="&#xe5;" 
d="M186 246q-46 0 -77 -35t-31 -82q0 -46 28 -77.5t76 -31.5q51 0 77 34v155q-28 37 -73 37zM190 271q38 0 69 -23v1q0 16 13 20q4 2 25 2q20 0 25 -2q13 -4 13 -20v-227q0 -16 -13 -20q-5 -2 -25 -2q-21 0 -25 2q-13 4 -13 20q-35 -29 -83 -29q-55 0 -90.5 37.5t-35.5 91.5
q0 66 38.5 107.5t101.5 41.5zM119 418q0 28 20.5 48.5t49.5 20.5t49.5 -20.5t20.5 -48.5q0 -29 -20.5 -49.5t-49.5 -20.5t-49.5 20.5t-20.5 49.5zM147 418q0 -18 12.5 -30t29.5 -12t29.5 12t12.5 30q0 17 -12.5 29t-29.5 12t-29.5 -12t-12.5 -29z" />
    <glyph glyph-name="ae" unicode="&#xe6;" horiz-adv-x="562" 
d="M186 253q-46 0 -77 -35t-31 -82t27 -79q29 -35 77 -35q53 0 77 32v155q-34 44 -73 44zM391 128q35 0 63 19.5t28 50.5q0 53 -69 53q-50 0 -67 -28q-6 -26 -7 -70q-1 -12 20 -19q17 -6 32 -6zM387 106h-16q-12 1 -22 -5.5t-9 -18.5q2 -26 6 -43q9 -15 25 -19q7 -2 34 -2
q34 0 70 22q5 3 9 3q8 0 8 -9q0 -7 -5 -12q-33 -29 -82 -29q-73 0 -115 54q-49 -52 -114 -52q-54 0 -90 40t-36 94q0 66 38.5 107.5t101.5 41.5q62 0 100 -60q46 60 131 60q33 0 61 -19q30 -22 30 -55q0 -48 -33.5 -73t-91.5 -25z" />
    <glyph glyph-name="ccedilla" unicode="&#xe7;" horiz-adv-x="317" 
d="M179 -8v-33h20q25 0 45.5 -15.5t21.5 -36.5q1 -48 -26 -67q-22 -16 -71 -16l-37 -1v24l41 4q54 5 54 41q0 33 -45 33h-27v70q-49 11 -81 49.5t-32 89.5q0 59 42 100.5t103 41.5q36 0 72 -32q5 -5 5 -12q0 -9 -8 -9q-4 0 -9 3q-40 25 -60 25q-45 0 -60 -25q-7 -34 -7 -92
t7 -92q15 -25 60 -25q20 0 60 25q5 3 9 3q8 0 8 -9q0 -7 -5 -12q-36 -32 -72 -32h-8z" />
    <glyph glyph-name="egrave" unicode="&#xe8;" horiz-adv-x="333" 
d="M158 128q35 0 63 19.5t28 50.5q0 53 -69 53q-50 0 -67 -28q-6 -26 -7 -70q-1 -12 20 -19q17 -6 32 -6zM154 106h-16q-12 1 -22 -5.5t-9 -18.5q2 -26 6 -43q9 -15 25 -19q7 -2 34 -2q34 0 70 22q5 3 9 3q8 0 8 -9q0 -7 -5 -12q-33 -29 -82 -29q-61 0 -102.5 39.5
t-41.5 98.5q0 61 44.5 104t115.5 43q33 0 61 -19q30 -22 30 -55q0 -48 -33.5 -73t-91.5 -25zM165 449q-8 17 -26 6q-17 -10 -5 -25q29 -34 61 -66q4 -4 5 -3t-1 6z" />
    <glyph glyph-name="eacute" unicode="&#xe9;" horiz-adv-x="333" 
d="M158 128q35 0 63 19.5t28 50.5q0 53 -69 53q-50 0 -67 -28q-6 -26 -7 -70q-1 -12 20 -19q17 -6 32 -6zM154 106h-16q-12 1 -22 -5.5t-9 -18.5q2 -26 6 -43q9 -15 25 -19q7 -2 34 -2q34 0 70 22q5 3 9 3q8 0 8 -9q0 -7 -5 -12q-33 -29 -82 -29q-61 0 -102.5 39.5
t-41.5 98.5q0 61 44.5 104t115.5 43q33 0 61 -19q30 -22 30 -55q0 -48 -33.5 -73t-91.5 -25zM156 449q8 17 26 6q17 -10 5 -25q-29 -34 -61 -66q-4 -4 -5 -3t1 6z" />
    <glyph glyph-name="ecircumflex" unicode="&#xea;" horiz-adv-x="333" 
d="M158 128q35 0 63 19.5t28 50.5q0 53 -69 53q-50 0 -67 -28q-6 -26 -7 -70q-1 -12 20 -19q17 -6 32 -6zM154 106h-16q-12 1 -22 -5.5t-9 -18.5q2 -26 6 -43q9 -15 25 -19q7 -2 34 -2q34 0 70 22q5 3 9 3q8 0 8 -9q0 -7 -5 -12q-33 -29 -82 -29q-61 0 -102.5 39.5
t-41.5 98.5q0 61 44.5 104t115.5 43q33 0 61 -19q30 -22 30 -55q0 -48 -33.5 -73t-91.5 -25zM185 412l52 -39q16 -12 16 -17q0 -3 -5 -9.5t-8 -6.5q-5 0 -20 11l-51 39q-5 4 -10 0l-51 -39q-15 -11 -20 -11q-4 0 -8.5 6.5t-4.5 9.5q0 5 16 17l52 39q15 11 21 11q7 0 21 -11z
" />
    <glyph glyph-name="edieresis" unicode="&#xeb;" horiz-adv-x="333" 
d="M158 128q35 0 63 19.5t28 50.5q0 53 -69 53q-50 0 -67 -28q-6 -26 -7 -70q-1 -12 20 -19q17 -6 32 -6zM154 106h-16q-12 1 -22 -5.5t-9 -18.5q2 -26 6 -43q9 -15 25 -19q7 -2 34 -2q34 0 70 22q5 3 9 3q8 0 8 -9q0 -7 -5 -12q-33 -29 -82 -29q-61 0 -102.5 39.5
t-41.5 98.5q0 61 44.5 104t115.5 43q33 0 61 -19q30 -22 30 -55q0 -48 -33.5 -73t-91.5 -25zM47 380q0 16 11 27t26 11q16 0 27 -11t11 -27t-11 -27t-27 -11q-15 0 -26 11t-11 27zM224 380q0 16 11 27t26 11q16 0 27 -11t11 -27t-11 -27t-27 -11q-15 0 -26 11t-11 27z" />
    <glyph glyph-name="igrave" unicode="&#xec;" horiz-adv-x="184" 
d="M87 0q-21 0 -25 2q-13 4 -13 20v228q0 16 13 20q4 2 25 2q20 0 25 -2q13 -4 13 -20v-228q0 -16 -13 -20q-5 -2 -25 -2zM89 449q-8 17 -26 6q-17 -10 -5 -25q29 -34 61 -66q4 -4 5 -3t-1 6z" />
    <glyph glyph-name="iacute" unicode="&#xed;" horiz-adv-x="184" 
d="M87 0q-21 0 -25 2q-13 4 -13 20v228q0 16 13 20q4 2 25 2q20 0 25 -2q13 -4 13 -20v-228q0 -16 -13 -20q-5 -2 -25 -2zM90 449q8 17 26 6q17 -10 5 -25q-29 -34 -61 -66q-4 -4 -5 -3t1 6z" />
    <glyph glyph-name="icircumflex" unicode="&#xee;" horiz-adv-x="184" 
d="M87 0q-21 0 -25 2q-13 4 -13 20v228q0 16 13 20q4 2 25 2q20 0 25 -2q13 -4 13 -20v-228q0 -16 -13 -20q-5 -2 -25 -2zM110 412l52 -39q16 -12 16 -17q0 -3 -5 -9.5t-8 -6.5q-5 0 -20 11l-51 39q-5 4 -10 0l-51 -39q-15 -11 -20 -11q-4 0 -8.5 6.5t-4.5 9.5q0 5 16 17
l52 39q15 11 21 11q7 0 21 -11z" />
    <glyph glyph-name="idieresis" unicode="&#xef;" horiz-adv-x="184" 
d="M87 0q-21 0 -25 2q-13 4 -13 20v228q0 16 13 20q4 2 25 2q20 0 25 -2q13 -4 13 -20v-228q0 -16 -13 -20q-5 -2 -25 -2zM-51 380q0 16 11 27t26 11q16 0 27 -11t11 -27t-11 -27t-27 -11q-15 0 -26 11t-11 27zM126 380q0 16 11 27t26 11q16 0 27 -11t11 -27t-11 -27
t-27 -11q-15 0 -26 11t-11 27z" />
    <glyph glyph-name="eth" unicode="&#xf0;" horiz-adv-x="386" 
d="M283 132q0 50 -10 94q-15 25 -60 25q-53 0 -85.5 -33t-32.5 -83t32 -84t86 -34q38 0 54 28.5t16 86.5zM330 530q-3 -3 -16 -9l-53 -25q81 -128 92 -261q5 -67 5 -73q0 -171 -149 -170q-58 0 -99.5 42t-41.5 100q0 59 42.5 100.5t102.5 41.5q28 0 54 -10q-13 106 -58 206
l-55 -25q-13 -6 -19 -6t-11 11q-4 7 -4 10q0 7 19 16l55 26q-56 108 -131 139q-20 8 -20 15q0 6 15 6q6 0 12 -2q95 -31 171 -136l58 27q13 6 19 6q7 0 11.5 -11.5t0.5 -17.5z" />
    <glyph glyph-name="ntilde" unicode="&#xf1;" horiz-adv-x="378" 
d="M321 186v-164q0 -16 -13 -20q-5 -2 -25 -2q-21 0 -25 2q-13 4 -13 20v195q0 22 -14 28q-7 3 -29 3t-49 -19t-27 -34v-173q0 -16 -13 -20q-5 -2 -25 -2q-21 0 -25 2q-13 4 -13 20v230q0 16 13 20q4 2 25 2q20 0 25 -2q13 -4 13 -20q0 -9 2 -9t13 7q42 27 80 27
q40 0 70 -26.5t30 -64.5zM93 381q21 16 49 12q15 -3 38.5 -11.5t38.5 -10.5q30 -4 49 13q5 5 9 5q6 0 6 -7q0 -8 -8 -16q-23 -23 -57 -18q-16 2 -39.5 10.5t-39.5 10.5q-13 2 -29 -4.5t-18 -6.5q-7 0 -7 8q0 9 8 15z" />
    <glyph glyph-name="ograve" unicode="&#xf2;" horiz-adv-x="386" 
d="M46 134q0 59 42.5 100.5t102.5 41.5t102.5 -41.5t42.5 -100.5t-42.5 -100.5t-102.5 -41.5t-102.5 41.5t-42.5 100.5zM131 226q-7 -34 -7 -92t7 -92q15 -25 60 -25q53 0 85.5 33t32.5 83t-32 84t-86 34q-45 0 -60 -25zM187 449q-8 17 -26 6q-17 -10 -5 -25q29 -34 61 -66
q4 -4 5 -3t-1 6z" />
    <glyph glyph-name="oacute" unicode="&#xf3;" horiz-adv-x="386" 
d="M46 134q0 59 42.5 100.5t102.5 41.5t102.5 -41.5t42.5 -100.5t-42.5 -100.5t-102.5 -41.5t-102.5 41.5t-42.5 100.5zM131 226q-7 -34 -7 -92t7 -92q15 -25 60 -25q53 0 85.5 33t32.5 83t-32 84t-86 34q-45 0 -60 -25zM181 449q8 17 26 6q17 -10 5 -25q-29 -34 -61 -66
q-4 -4 -5 -3t1 6z" />
    <glyph glyph-name="ocircumflex" unicode="&#xf4;" horiz-adv-x="386" 
d="M46 134q0 59 42.5 100.5t102.5 41.5t102.5 -41.5t42.5 -100.5t-42.5 -100.5t-102.5 -41.5t-102.5 41.5t-42.5 100.5zM131 226q-7 -34 -7 -92t7 -92q15 -25 60 -25q53 0 85.5 33t32.5 83t-32 84t-86 34q-45 0 -60 -25zM213 412l52 -39q16 -12 16 -17q0 -3 -5 -9.5t-8 -6.5
q-5 0 -20 11l-51 39q-5 4 -10 0l-51 -39q-15 -11 -20 -11q-4 0 -8.5 6.5t-4.5 9.5q0 5 16 17l52 39q15 11 21 11q7 0 21 -11z" />
    <glyph glyph-name="otilde" unicode="&#xf5;" horiz-adv-x="386" 
d="M46 134q0 59 42.5 100.5t102.5 41.5t102.5 -41.5t42.5 -100.5t-42.5 -100.5t-102.5 -41.5t-102.5 41.5t-42.5 100.5zM131 226q-7 -34 -7 -92t7 -92q15 -25 60 -25q53 0 85.5 33t32.5 83t-32 84t-86 34q-45 0 -60 -25zM91 381q21 16 49 12q15 -3 38.5 -11.5t38.5 -10.5
q30 -4 49 13q5 5 9 5q6 0 6 -7q0 -8 -8 -16q-23 -23 -57 -18q-16 2 -39.5 10.5t-39.5 10.5q-13 2 -29 -4.5t-18 -6.5q-7 0 -7 8q0 9 8 15z" />
    <glyph glyph-name="odieresis" unicode="&#xf6;" horiz-adv-x="386" 
d="M46 134q0 59 42.5 100.5t102.5 41.5t102.5 -41.5t42.5 -100.5t-42.5 -100.5t-102.5 -41.5t-102.5 41.5t-42.5 100.5zM131 226q-7 -34 -7 -92t7 -92q15 -25 60 -25q53 0 85.5 33t32.5 83t-32 84t-86 34q-45 0 -60 -25zM58 380q0 16 11 27t26 11q16 0 27 -11t11 -27
t-11 -27t-27 -11q-15 0 -26 11t-11 27zM235 380q0 16 11 27t26 11q16 0 27 -11t11 -27t-11 -27t-27 -11q-15 0 -26 11t-11 27z" />
    <glyph glyph-name="divide" unicode="&#xf7;" horiz-adv-x="364" 
d="M175 194q-35 0 -35 -35q0 -36 35 -36t35 36q0 35 -35 35zM180 340q37 -2 37 36q0 33 -33 35q-38 2 -38 -36q0 -33 34 -35zM33 293v-33h279v33h-279z" />
    <glyph glyph-name="oslash" unicode="&#xf8;" horiz-adv-x="368" 
d="M28 134q0 59 42.5 100.5t102.5 41.5q34 0 64 -15l41 55q4 6 10 6q13 0 13 -13q0 -4 -3 -7l-39 -54q59 -42 59 -114q0 -59 -42.5 -100.5t-102.5 -41.5q-47 0 -85 27l-35 -47q-4 -6 -10 -6q-13 0 -13 13q0 4 3 7l36 49q-41 41 -41 99zM111 50l2 -8q15 -25 60 -25
q53 0 85.5 33t32.5 83q0 63 -46 97zM113 226q-7 -34 -8 -92q0 -25 2 -48l116 156q-23 9 -50 9q-45 0 -60 -25z" />
    <glyph glyph-name="ugrave" unicode="&#xf9;" horiz-adv-x="379" 
d="M50 88v164q0 16 13 21q5 1 25 1q21 0 25 -2q13 -4 13 -20v-195q0 -22 14 -28q7 -3 29 -3t49 19t27 34v173q0 16 13 21q5 1 25 1q21 0 25 -2q13 -4 13 -20v-230q0 -16 -13 -20q-4 -2 -25 -2q-20 0 -25 2q-13 4 -13 20q0 9 -2 9t-13 -7q-42 -27 -80 -27q-40 0 -70 26.5
t-30 64.5zM187 449q-8 17 -26 6q-17 -10 -5 -25q29 -34 61 -66q4 -4 5 -3t-1 6z" />
    <glyph glyph-name="uacute" unicode="&#xfa;" horiz-adv-x="379" 
d="M50 88v164q0 16 13 21q5 1 25 1q21 0 25 -2q13 -4 13 -20v-195q0 -22 14 -28q7 -3 29 -3t49 19t27 34v173q0 16 13 21q5 1 25 1q21 0 25 -2q13 -4 13 -20v-230q0 -16 -13 -20q-4 -2 -25 -2q-20 0 -25 2q-13 4 -13 20q0 9 -2 9t-13 -7q-42 -27 -80 -27q-40 0 -70 26.5
t-30 64.5zM189 449q8 17 26 6q17 -10 5 -25q-29 -34 -61 -66q-4 -4 -5 -3t1 6z" />
    <glyph glyph-name="ucircumflex" unicode="&#xfb;" horiz-adv-x="379" 
d="M50 88v164q0 16 13 21q5 1 25 1q21 0 25 -2q13 -4 13 -20v-195q0 -22 14 -28q7 -3 29 -3t49 19t27 34v173q0 16 13 21q5 1 25 1q21 0 25 -2q13 -4 13 -20v-230q0 -16 -13 -20q-4 -2 -25 -2q-20 0 -25 2q-13 4 -13 20q0 9 -2 9t-13 -7q-42 -27 -80 -27q-40 0 -70 26.5
t-30 64.5zM204 412l52 -39q16 -12 16 -17q0 -3 -5 -9.5t-8 -6.5q-5 0 -20 11l-51 39q-5 4 -10 0l-51 -39q-15 -11 -20 -11q-4 0 -8.5 6.5t-4.5 9.5q0 5 16 17l52 39q15 11 21 11q7 0 21 -11z" />
    <glyph glyph-name="udieresis" unicode="&#xfc;" horiz-adv-x="379" 
d="M50 88v164q0 16 13 21q5 1 25 1q21 0 25 -2q13 -4 13 -20v-195q0 -22 14 -28q7 -3 29 -3t49 19t27 34v173q0 16 13 21q5 1 25 1q21 0 25 -2q13 -4 13 -20v-230q0 -16 -13 -20q-4 -2 -25 -2q-20 0 -25 2q-13 4 -13 20q0 9 -2 9t-13 -7q-42 -27 -80 -27q-40 0 -70 26.5
t-30 64.5zM56 380q0 16 11 27t26 11q16 0 27 -11t11 -27t-11 -27t-27 -11q-15 0 -26 11t-11 27zM233 380q0 16 11 27t26 11q16 0 27 -11t11 -27t-11 -27t-27 -11q-15 0 -26 11t-11 27z" />
    <glyph glyph-name="yacute" unicode="&#xfd;" horiz-adv-x="379" 
d="M209 -172q-22 -5 -22 12q0 7 8 11q50 22 50 72v102q0 9 -3 9q-1 0 -12 -7q-42 -27 -80 -27q-40 0 -70 26.5t-30 64.5v164q0 16 13 20q5 2 25 2q21 -1 25 -2q13 -4 13 -20v-195q0 -22 14 -28q7 -3 29 -3t49 19t27 34v173q0 16 13 20q4 1 25 2q20 0 25 -2q13 -4 13 -20
v-289q0 -46 -33 -87.5t-79 -50.5zM205 449q8 17 26 6q17 -10 5 -25q-29 -34 -61 -66q-4 -4 -5 -3t1 6z" />
    <glyph glyph-name="thorn" unicode="&#xfe;" horiz-adv-x="381" 
d="M126 61v149q17 42 76 42q46 0 75 -32q26 -30 26 -72q0 -50 -29.5 -87.5t-71.5 -37.5q-56 0 -76 38zM88 690q-20 0 -25 -2q-13 -4 -13 -20v-816q0 -16 13 -20q4 -2 25 -2q20 0 25 2q13 4 13 20v148q0 21 15 13q27 -13 63 -13q57 0 94 48q33 43 33 99t-35.5 92.5
t-97.5 36.5q-40 0 -66 -21q-6 -5 -6 5v408q0 16 -12 20q-5 2 -26 2z" />
    <glyph glyph-name="ydieresis" unicode="&#xff;" horiz-adv-x="379" 
d="M209 -172q-22 -5 -22 12q0 7 8 11q50 22 50 72v102q0 9 -3 9q-1 0 -12 -7q-42 -27 -80 -27q-40 0 -70 26.5t-30 64.5v164q0 16 13 20q5 2 25 2q21 -1 25 -2q13 -4 13 -20v-195q0 -22 14 -28q7 -3 29 -3t49 19t27 34v173q0 16 13 20q4 1 25 2q20 0 25 -2q13 -4 13 -20
v-289q0 -46 -33 -87.5t-79 -50.5zM58 380q0 16 11 27t26 11q16 0 27 -11t11 -27t-11 -27t-27 -11q-15 0 -26 11t-11 27zM235 380q0 16 11 27t26 11q16 0 27 -11t11 -27t-11 -27t-27 -11q-15 0 -26 11t-11 27z" />
    <glyph glyph-name="dotlessi" unicode="&#x131;" horiz-adv-x="184" 
d="M87 0q-21 0 -25 2q-13 4 -13 20v228q0 16 13 20q4 2 25 2q20 0 25 -2q13 -4 13 -20v-228q0 -16 -13 -20q-5 -2 -25 -2z" />
    <glyph glyph-name="Lslash" unicode="&#x141;" horiz-adv-x="473" 
d="M227 445q4 -10 -1 -15q-1 -2 -15 -9l-39 -21q-12 -7 -12 -23v-336q0 -13 15 -13h237q16 0 18 -1q7 -2 7 -13t-7 -13q-3 -1 -18 -1h-307q-55 0 -55 25v297q0 13 -13 6l-24 -13q-15 -8 -20 -8q-4 0 -8 7t-4 9q0 6 19 16l35 19q15 8 15 29v275q0 25 55 25t55 -25v-221
q0 -13 5 -12q2 0 7 2l26 14q15 8 20 8q4 0 9 -8z" />
    <glyph glyph-name="lslash" unicode="&#x142;" horiz-adv-x="199" 
d="M133 670q0 16 -13 20q-5 2 -25 2q-21 0 -25 -2q-13 -4 -13 -20v-283q0 -21 -15 -29l-35 -19q-19 -10 -19 -16q0 -2 4 -9t8 -7q5 0 20 8l24 13q13 7 13 -6v-300q0 -16 13 -20q4 -2 25 -2q20 0 25 2q13 4 13 20v337q0 17 12 23l39 21q14 8 15 9q5 5 1 15q-4 8 -9 8t-20 -8
l-26 -14q-12 -6 -12 10v247z" />
    <glyph glyph-name="OE" unicode="&#x152;" horiz-adv-x="839" 
d="M398 20v647q-123 0 -186 -103q-55 -90 -55 -234q0 -147 59 -227q61 -83 181 -83h1zM525 471h255q15 0 18 -1q7 -2 7 -13t-7 -13q-2 -1 -18 -1h-257q-15 0 -15 -13v-390q0 -12 12 -12h241q18 0 21.5 -2.5t3.5 -11.5q0 -11 -7 -13q-2 -1 -18 -1h-308q-9 0 -33 -1h-33
q-156 0 -250 90t-94 241q0 148 99.5 253.5t244.5 105.5q11 0 33 -1t33 -1h293q15 0 18 -1q7 -2 7 -13t-7 -13h-18h-223q-15 0 -15 -14v-160q0 -15 17 -15z" />
    <glyph glyph-name="oe" unicode="&#x153;" horiz-adv-x="592" 
d="M113 226q-7 -34 -7 -92t7 -92q15 -25 60 -25q53 0 85.5 33t32.5 83t-32 84t-86 34q-45 0 -60 -25zM421 128q35 0 63 19.5t28 50.5q0 53 -69 53q-50 0 -67 -28q-6 -26 -7 -70q-1 -12 20 -19q17 -6 32 -6zM417 106h-16q-12 1 -22 -5.5t-9 -18.5q2 -26 6 -43q9 -15 25 -19
q7 -2 34 -2q34 0 70 22q5 3 9 3q8 0 8 -9q0 -7 -5 -12q-33 -29 -82 -29q-94 0 -131 80q-18 -37 -53.5 -59t-77.5 -22q-60 0 -102.5 41.5t-42.5 100.5t42.5 100.5t102.5 41.5q43 0 78.5 -23t53.5 -60q40 85 146 85q33 0 61 -19q30 -22 30 -55q0 -48 -33.5 -73t-91.5 -25z" />
    <glyph glyph-name="Scaron" unicode="&#x160;" horiz-adv-x="571" 
d="M78 149q-1 16 -15 16t-13 -20q4 -66 65.5 -110t147.5 -44q106 0 174 52q75 56 75 156q0 71 -54 124q-33 34 -123 84q-67 37 -90 59q-42 40 -42 92q0 53 48 84q44 29 105 29q14 0 42 -10q18 -6 22 13q2 10 -12 13q-25 6 -44 7q-91 5 -160 -47q-72 -55 -72 -140
q0 -74 55 -124q14 -13 109 -73q73 -46 92 -64q41 -39 41 -92q0 -65 -52 -102q-47 -34 -115 -34q-70 0 -124 36q-57 37 -60 95zM362 728l51 38q16 13 16 18q0 2 -5 8.5t-8 6.5q-5 0 -20 -11l-51 -38q-5 -4 -9 0l-52 38q-15 11 -20 11q-3 0 -8 -6.5t-5 -8.5q0 -5 16 -18
l52 -38q15 -11 21 -11q7 0 22 11z" />
    <glyph glyph-name="scaron" unicode="&#x161;" horiz-adv-x="305" 
d="M148 277q49 0 74 -23q5 -4 5 -10q0 -11 -12 -11q-6 0 -13 4q-24 16 -51 16q-42 0 -42 -25q0 -12 57 -52q51 -36 56 -40q25 -24 25 -54q0 -36 -32 -61t-73 -25q-55 0 -86 33q-6 7 -6 13q0 12 12 12q6 0 11 -5q33 -30 60 -30q62 0 62 29q0 18 -64 64l-53 38q-26 23 -26 51
q0 33 29.5 54.5t66.5 21.5zM178 354l51 38q16 13 16 18q0 2 -5 8.5t-8 6.5q-5 0 -20 -11l-51 -38q-5 -4 -9 0l-52 38q-15 11 -20 11q-3 0 -8 -6.5t-5 -8.5q0 -5 16 -18l52 -38q15 -11 21 -11q7 0 22 11z" />
    <glyph glyph-name="Ydieresis" unicode="&#x178;" horiz-adv-x="698" 
d="M403 200v-175q0 -25 -55 -25t-55 25v148q-2 10 -9 31l-228 446q-1 3 -9 12q-5 6 -5 12q0 16 45 16h44q23 -3 31 -19l204 -400q7 -13 14 -13q8 0 15 15l191 406q7 14 21 11q7 -2 11 -9q3 -8 0 -15l-208 -434q-7 -15 -7 -32zM230 761q0 16 11 27t26 11q16 0 27 -11t11 -27
t-11 -27t-27 -11q-15 0 -26 11t-11 27zM407 761q0 16 11 27t26 11q16 0 27 -11t11 -27t-11 -27t-27 -11q-15 0 -26 11t-11 27z" />
    <glyph glyph-name="Zcaron" unicode="&#x17d;" horiz-adv-x="584" 
d="M392 628l-334 -592q-8 -15 -8 -22q0 -14 22 -14h440q17 0 20 11q5 16 -27 16h-319q-13 0 -13 6q0 5 5 14l340 603q8 14 8 23q0 14 -25 14h-383q-23 0 -23 -16q0 -15 22 -15h259q23 0 23 -10q0 -5 -7 -18zM341 724l51 38q16 13 16 18q0 2 -5 8.5t-8 6.5q-5 0 -20 -11
l-51 -38q-5 -4 -9 0l-52 38q-15 11 -20 11q-3 0 -8 -6.5t-5 -8.5q0 -5 16 -18l52 -38q15 -11 21 -11q7 0 22 11z" />
    <glyph glyph-name="zcaron" unicode="&#x17e;" horiz-adv-x="344" 
d="M146 44q-3 -5 -3 -12t5 -7h113q22 0 22 -11q0 -14 -21 -14h-197q-14 0 -15 12q-1 6 3 11l137 205q3 5 3 12t-5 7h-95q-21 0 -22 11q-1 14 21 14h179q14 0 15 -12q1 -6 -3 -11zM210 354l51 38q16 13 16 18q0 2 -5 8.5t-8 6.5q-5 0 -20 -11l-51 -38q-5 -4 -9 0l-52 38
q-15 11 -20 11q-3 0 -8 -6.5t-5 -8.5q0 -5 16 -18l52 -38q15 -11 21 -11q7 0 22 11z" />
    <glyph glyph-name="florin" unicode="&#x192;" horiz-adv-x="369" 
d="M185 406q125 235 210 231q33 -2 33 -50q0 -13 -3 -24q-11 -36 -31 -34q-22 2 -22 29q0 34 30 40l-2 16.5t-17 9.5q-30 2 -111 -141q-20 -36 -40 -77h61l-11 -12h-56q-7 -14 -75 -167q-45 -99 -90 -178l-68 -123q-39 -66 -78 -97q-48 -41 -112 -42q-23 -1 -38.5 19
t-15.5 45q0 50 32 47q23 -2 23 -28q0 -8 -2 -17q-5 -21 -29 -23q0 -10 5 -17q10 -18 27 -16q70 8 127 93q23 35 90 175l126 266q6 13 31 63h-53l9 12h50z" />
    <glyph glyph-name="circumflex" unicode="&#x2c6;" horiz-adv-x="381" 
d="M206 412l52 -39q16 -12 16 -17q0 -3 -5 -9.5t-8 -6.5q-5 0 -20 11l-51 39q-5 4 -10 0l-51 -39q-15 -11 -20 -11q-4 0 -8.5 6.5t-4.5 9.5q0 5 16 17l52 39q15 11 21 11q7 0 21 -11z" />
    <glyph glyph-name="caron" unicode="&#x2c7;" horiz-adv-x="308" 
d="M181 354l51 38q16 13 16 18q0 2 -5 8.5t-8 6.5q-5 0 -20 -11l-51 -38q-5 -4 -9 0l-52 38q-15 11 -20 11q-3 0 -8 -6.5t-5 -8.5q0 -5 16 -18l52 -38q15 -11 21 -11q7 0 22 11z" />
    <glyph glyph-name="breve" unicode="&#x2d8;" 
d="M119 418q1 -26 21 -43.5t49 -17.5t49.5 17.5t20.5 43.5h-28q-1 -14 -13 -23.5t-29 -9.5t-29.5 9.5t-12.5 23.5h-28z" />
    <glyph glyph-name="dotaccent" unicode="&#x2d9;" horiz-adv-x="222" 
d="M31 380q0 16 11 27t26 11q16 0 27 -11t11 -27t-11 -27t-27 -11q-15 0 -26 11t-11 27z" />
    <glyph glyph-name="ring" unicode="&#x2da;" 
d="M119 418q0 28 20.5 48.5t49.5 20.5t49.5 -20.5t20.5 -48.5q0 -29 -20.5 -49.5t-49.5 -20.5t-49.5 20.5t-20.5 49.5zM147 418q0 -18 12.5 -30t29.5 -12t29.5 12t12.5 30q0 17 -12.5 29t-29.5 12t-29.5 -12t-12.5 -29z" />
    <glyph glyph-name="ogonek" unicode="&#x2db;" horiz-adv-x="1000" 
d="M123 0h42q-26 -4 -40 -27.5t-10 -52.5q3 -23 32 -36q23 -11 51 -11q41 0 67 37l20 -25q-35 -56 -100 -55q-44 1 -77 26t-33 64q0 54 48 80z" />
    <glyph glyph-name="tilde" unicode="&#x2dc;" horiz-adv-x="394" 
d="M95 381q21 16 49 12q15 -3 38.5 -11.5t38.5 -10.5q30 -4 49 13q5 5 9 5q6 0 6 -7q0 -8 -8 -16q-23 -23 -57 -18q-16 2 -39.5 10.5t-39.5 10.5q-13 2 -29 -4.5t-18 -6.5q-7 0 -7 8q0 9 8 15z" />
    <glyph glyph-name="hungarumlaut" unicode="&#x2dd;" horiz-adv-x="370" 
d="M181 449q8 17 26 6q17 -10 5 -25q-29 -34 -61 -66q-4 -4 -5 -3t1 6zM287 449q8 17 26 6q17 -10 5 -25q-29 -34 -61 -66q-4 -4 -5 -3t1 6z" />
    <glyph glyph-name="Delta" unicode="&#x394;" horiz-adv-x="713" 
d="M315 680l-315 -635v-45h627v45zM535 45h-485l240 485z" />
    <glyph glyph-name="Delta" unicode="&#x2206;" horiz-adv-x="713" 
d="M315 680l-315 -635v-45h627v45zM535 45h-485l240 485z" />
    <glyph glyph-name="Omega" unicode="&#x3a9;" horiz-adv-x="726" 
d="M67 102l37 -104h147v90q0 65 -36 134l-65 113q-36 67 -36 126q0 110 61 190q66 86 166 84q96 -2 156 -89q52 -77 59 -190q4 -60 -29 -125l-62 -112q-35 -68 -35 -131v-90h146l27 107l-32 8l-11 -63h-83v19q0 70 44 139l83 114q44 69 45 139q1 133 -91 217q-87 79 -216 79
q-133 0 -225 -79q-98 -84 -96 -217q1 -70 49 -139l90 -114q48 -69 48 -139v-19h-83l-24 57z" />
    <glyph glyph-name="Omega" unicode="&#x2126;" horiz-adv-x="726" 
d="M67 102l37 -104h147v90q0 65 -36 134l-65 113q-36 67 -36 126q0 110 61 190q66 86 166 84q96 -2 156 -89q52 -77 59 -190q4 -60 -29 -125l-62 -112q-35 -68 -35 -131v-90h146l27 107l-32 8l-11 -63h-83v19q0 70 44 139l83 114q44 69 45 139q1 133 -91 217q-87 79 -216 79
q-133 0 -225 -79q-98 -84 -96 -217q1 -70 49 -139l90 -114q48 -69 48 -139v-19h-83l-24 57z" />
    <glyph glyph-name="pi" unicode="&#x3c0;" horiz-adv-x="557" 
d="M217 420h126q-7 -47 -7 -85q0 -73 31 -163t78 -146q25 -30 34 -30q24 0 24 33q0 13 -6 28q-10 25 -42 60q-35 39 -48 65q-46 94 -46 179q0 27 4 59h84q26 0 28 24q3 28 -28 28h-312q-41 0 -83 -63q-20 -31 -26 -66l22 -10q6 20 31 53.5t51 33.5h62q-24 -119 -66 -226
q-22 -44 -62 -137q-6 -15 -6 -28q0 -33 24 -33q14 0 35 31.5t32 72l21 80.5q35 120 45 240z" />
    <glyph glyph-name="endash" unicode="&#x2013;" horiz-adv-x="508" 
d="M391 145q0 -34 -25 -34h-302q-25 0 -25 34q0 35 25 35h302q25 0 25 -35z" />
    <glyph glyph-name="emdash" unicode="&#x2014;" horiz-adv-x="1039" 
d="M922 145q0 -34 -25 -34h-833q-25 0 -25 34q0 35 25 35h833q25 0 25 -35z" />
    <glyph glyph-name="quoteleft" unicode="&#x2018;" horiz-adv-x="248" 
d="M144 517q-54 38 -62 74q-4 13 11 15h14q21 0 35.5 14.5t14.5 34.5q0 21 -14.5 35.5t-35.5 14.5q-22 0 -41 -20.5t-19 -50.5q0 -46 26 -82q10 -13 53 -51q6 -6 12 -6q12 0 12 11q0 6 -6 11z" />
    <glyph glyph-name="quoteright" unicode="&#x2019;" horiz-adv-x="238" 
d="M52 517q53 38 62 74q3 13 -11 15h-14q-21 0 -35.5 14.5t-14.5 35.5q0 20 14.5 34.5t35.5 14.5q22 0 40 -19q20 -22 20 -52q0 -46 -27 -81q-10 -14 -52 -52q-6 -6 -13 -6q-11 0 -11 11q0 6 6 11z" />
    <glyph glyph-name="quotesinglbase" unicode="&#x201a;" horiz-adv-x="260" 
d="M52 -100q53 38 62 74q3 13 -11 15h-14q-21 0 -35.5 14.5t-14.5 35.5q0 20 14.5 34.5t35.5 14.5q22 0 40 -19q20 -22 20 -52q0 -46 -27 -81q-10 -14 -52 -52q-6 -6 -13 -6q-11 0 -11 11q0 6 6 11z" />
    <glyph glyph-name="quotedblleft" unicode="&#x201c;" horiz-adv-x="402" 
d="M144 517q-54 38 -62 74q-4 13 11 15h14q21 0 35.5 14.5t14.5 34.5q0 21 -14.5 35.5t-35.5 14.5q-22 0 -41 -20.5t-19 -50.5q0 -46 26 -82q10 -13 53 -51q6 -6 12 -6q12 0 12 11q0 6 -6 11zM298 517q-54 38 -62 74q-4 13 11 15h14q21 0 35.5 14.5t14.5 34.5
q0 21 -14.5 35.5t-35.5 14.5q-22 0 -41 -20.5t-19 -50.5q0 -46 26 -82q10 -13 53 -51q6 -6 12 -6q12 0 12 11q0 6 -6 11z" />
    <glyph glyph-name="quotedblright" unicode="&#x201d;" horiz-adv-x="397" 
d="M52 517q53 38 62 74q3 13 -11 15h-14q-21 0 -35.5 14.5t-14.5 35.5q0 20 14.5 34.5t35.5 14.5q22 0 40 -19q20 -22 20 -52q0 -46 -27 -81q-10 -14 -52 -52q-6 -6 -13 -6q-11 0 -11 11q0 6 6 11zM211 517q53 38 62 74q3 13 -11 15h-14q-21 0 -35.5 14.5t-14.5 35.5
q0 20 14.5 34.5t35.5 14.5q22 0 40 -19q20 -22 20 -52q0 -46 -27 -81q-10 -14 -52 -52q-6 -6 -13 -6q-11 0 -11 11q0 6 6 11z" />
    <glyph glyph-name="quotedblbase" unicode="&#x201e;" horiz-adv-x="424" 
d="M216 -100q53 38 62 74q3 13 -11 15h-14q-21 0 -35.5 14.5t-14.5 35.5q0 20 14.5 34.5t35.5 14.5q22 0 40 -19q20 -22 20 -52q0 -46 -27 -81q-10 -14 -52 -52q-6 -6 -13 -6q-11 0 -11 11q0 6 6 11zM52 -100q53 38 62 74q3 13 -11 15h-14q-21 0 -35.5 14.5t-14.5 35.5
q0 20 14.5 34.5t35.5 14.5q22 0 40 -19q20 -22 20 -52q0 -46 -27 -81q-10 -14 -52 -52q-6 -6 -13 -6q-11 0 -11 11q0 6 6 11z" />
    <glyph glyph-name="dagger" unicode="&#x2020;" horiz-adv-x="336" 
d="M68 441q-10 -2 -19 -2q-37 0 -37 34t38 34q8 0 18 -2l82 -18l-17 82q-2 10 -2 19q0 37 34 37t34 -38q0 -8 -2 -18l-18 -82l82 17q10 2 19 2q37 0 37 -34t-37 -34q-9 0 -19 2l-82 18q21 -11 18 -57q-8 -124 -28 -380q-1 -16 -6 -16t-6 16q-9 188 -24 380q-2 24 -1 27
q2 19 18 29z" />
    <glyph glyph-name="daggerdbl" unicode="&#x2021;" horiz-adv-x="336" 
d="M68 441q-10 -2 -19 -2q-37 0 -37 34t38 34q8 0 18 -2l82 -18l-17 82q-2 10 -2 19q0 37 34 37t34 -38q0 -8 -2 -18l-18 -82l82 17q10 2 19 2q37 0 37 -34t-37 -34q-9 0 -19 2l-82 18q23 -12 18 -57q-4 -41 -18 -115l18 -115q8 -44 -18 -57q15 4 82 18q10 2 19 2
q37 0 37 -34t-37 -34q-9 0 -19 2l-82 17q4 -14 18 -82q2 -10 2 -18q0 -38 -34 -38t-34 37q0 9 2 19l17 82l-82 -18q-10 -2 -18 -2q-38 0 -38 34t37 34q9 0 19 -2l82 -16q-23 15 -17 56l19 115q-7 38 -19 115q-6 42 17 56z" />
    <glyph glyph-name="bullet" unicode="&#x2022;" horiz-adv-x="401" 
d="M92 234q0 41 28.5 70t70.5 29q41 0 70 -29t29 -70t-29 -70t-70 -29q-42 0 -70.5 29t-28.5 70z" />
    <glyph glyph-name="ellipsis" unicode="&#x2026;" horiz-adv-x="810" 
d="M599 50q0 20 14.5 34.5t35.5 14.5q20 0 34.5 -14.5t14.5 -34.5q0 -21 -14.5 -35.5t-34.5 -14.5q-21 0 -35.5 14.5t-14.5 35.5zM328 50q0 20 14.5 34.5t35.5 14.5q20 0 34.5 -14.5t14.5 -34.5q0 -21 -14.5 -35.5t-34.5 -14.5q-21 0 -35.5 14.5t-14.5 35.5zM57 50
q0 20 14.5 34.5t35.5 14.5q20 0 34.5 -14.5t14.5 -34.5q0 -21 -14.5 -35.5t-34.5 -14.5q-21 0 -35.5 14.5t-14.5 35.5z" />
    <glyph glyph-name="perthousand" unicode="&#x2030;" horiz-adv-x="945" 
d="M294 157q0 71 42.5 122t102.5 51q65 0 101 -52q33 -46 33 -118q0 -73 -32 -121q-37 -53 -103 -53q-71 0 -111 57q-33 49 -33 114zM350 152q0 -153 90 -153q57 0 89 51q27 44 27 109q0 61 -25 104q-30 50 -80 50q-101 0 -101 -161zM48 515q0 70 43 121t102 51
q66 0 102 -51q33 -47 33 -118q0 -73 -33 -121q-36 -54 -102 -54q-71 0 -111 58q-34 48 -34 114zM105 509q0 -152 90 -152q57 0 88 50q28 45 28 110q0 60 -25 104q-30 49 -81 49q-100 0 -100 -161zM144 -7q-8 4 -8 9t7 19l316 642q7 14 8 15q6 6 15 1q9 -4 9 -9t-7 -19
l-316 -642q-7 -14 -9 -15q-5 -6 -15 -1zM633 157q0 71 42.5 122t102.5 51q65 0 102 -52q33 -46 33 -118q0 -73 -33 -121q-37 -53 -103 -53q-71 0 -110 57q-34 49 -34 114zM689 152q0 -153 90 -153q57 0 89 51q28 44 28 109q0 61 -26 104q-29 50 -80 50q-101 0 -101 -161z
" />
    <glyph glyph-name="guilsinglleft" unicode="&#x2039;" horiz-adv-x="319" 
d="M183 444q8 10 13 10q3 0 8 -9q8 -14 -4 -29l-105 -134q-6 -8 0 -16l105 -133q12 -15 4 -30q-5 -8 -9 -8t-12 10l-121 153q-11 15 -1 29q5 7 122 157z" />
    <glyph glyph-name="guilsinglright" unicode="&#x203a;" horiz-adv-x="319" 
d="M113 444q-8 10 -13 10q-3 0 -8 -9q-8 -14 4 -29l105 -134q6 -8 0 -16l-105 -133q-12 -15 -4 -30q5 -8 9 -8t12 10l121 153q11 15 1 29q-5 7 -122 157z" />
    <glyph glyph-name="fraction" unicode="&#x2044;" horiz-adv-x="484" 
d="M51 -7q-8 4 -8 9t7 19l316 642q7 13 8 15q5 5 15 1q9 -4 9 -9t-7 -19l-316 -642q-7 -13 -8 -15q-6 -5 -16 -1z" />
    <glyph glyph-name="EuroSign" unicode="&#x20ac;" horiz-adv-x="821" 
d="M103 378h-37q-15 0 -18 1q-7 2 -7 13t7 13h18h41q18 0 22 15q28 118 120 196t213 78q163 0 244 -105q11 -15 11 -18q0 -15 -13 -15q-7 0 -18 12q-97 104 -212 104q-110 0 -174 -85q-53 -70 -60 -169q-1 -13 17 -13h493h18q7 -2 7 -13t-7 -13q-3 -1 -18 -1h-497
q-19 0 -19.5 -18.5t-1.5 -43.5q-1 -13 17 -13h493h18q7 -2 7 -13t-7 -13q-3 -1 -18 -1h-488q-19 0 -19 -19q38 -245 237 -245q73 0 136.5 38.5t104.5 106.5q8 14 13 14q4 0 10 -4q11 -8 11 -9q0 -5 -13 -25q-45 -68 -113 -106q-73 -42 -159 -42q-134 0 -224.5 74t-112.5 197
q-4 20 -21 20h-30q-15 0 -18 1q-7 2 -7 13t7 13h18h28q16 0 16 17q0 26 1 42q2 16 -16 16z" />
    <glyph glyph-name="trademark" unicode="&#x2122;" horiz-adv-x="657" 
d="M245 721h-64v-254q0 -10 -22 -10t-22 10v254h-64q-10 0 -10 5q0 6 10 6h172q10 0 10 -5q0 -6 -10 -6zM323 626l92 -161q6 -10 11 -1l92 172q6 12 6 -2v-167q0 -10 22 -10t22 10v255q0 10 -7 10q-5 0 -8 -6l-112 -208q-5 -9 -10 0l-114 207q-4 8 -10 7t-6 -10v-255
q0 -10 6 -10q5 0 5 10v157q0 6 4 7q4 0 7 -5z" />
    <glyph glyph-name="partialdiff" unicode="&#x2202;" horiz-adv-x="386" 
d="M273 226q-15 25 -60 25q-53 0 -85.5 -33t-32.5 -83q-1 -118 102 -118q39 0 61 57q19 48 19 109q0 26 -4 43zM353 235q6 -72 -17 -136q-37 -107 -143 -107q-56 0 -90.5 41t-34.5 101q0 59 42.5 100.5t102.5 41.5q28 0 54 -10q-14 113 -62 217q-60 126 -142 160
q-20 8 -20 15q0 6 15 6q6 0 12 -2q115 -38 199 -178q74 -124 84 -249z" />
    <glyph glyph-name="product" unicode="&#x220f;" horiz-adv-x="688" 
d="M565 600q0 14 10.5 25.5t24.5 11.5h53v24h-608v-24h53q14 0 24.5 -12.5t10.5 -24.5v-575q0 -25 55 -25t55 25v575q0 14 10.5 25.5t24.5 11.5h141q14 0 24.5 -12.5t10.5 -24.5l1 -575q1 -25 55 -25q55 0 55 25v575z" />
    <glyph glyph-name="summation" unicode="&#x2211;" horiz-adv-x="678" 
d="M537 0l54 197h-22l-13 -32q-24 -60 -72.5 -102.5t-92.5 -42.5h-173q-25 0 -35 15q-13 20 -3 36l189 310l-125 206q-11 19 2.5 35t34.5 16h147q35 0 48 -6q5 -2 26 -22q50 -47 64 -108l7 -31h15l-21 187h-505v-20h23q14 0 35 -21q5 -5 20 -30l139 -231v-54l-139 -231
q-5 -10 -21 -30q-21 -21 -31 -21h-26v-20h475z" />
    <glyph glyph-name="radical" unicode="&#x221a;" horiz-adv-x="879" 
d="M548 699l-315 -699h-93l-125 252l-35 -37l-37 48l124 125l151 -308l309 666h300v-47h-279z" />
    <glyph glyph-name="infinity" unicode="&#x221e;" horiz-adv-x="940" 
d="M409 189q-72 108 -79 117q-47 55 -105 54q-62 -1 -110 -37q-50 -39 -50 -92q0 -58 47 -107q49 -52 113 -52q112 0 184 117zM483 274q76 -116 76 -117q46 -55 103 -55q63 0 112 37.5t49 91.5q0 57 -47 107q-50 52 -114 52q-105 0 -179 -116zM470 293q35 60 69 88
q44 36 102 36q106 0 169 -59q55 -53 55 -127q0 -79 -56 -130q-60 -55 -168 -55q-131 0 -219 125q-37 -60 -71 -88q-46 -37 -105 -37q-107 0 -167 55q-55 50 -55 130q0 74 54 127q62 59 168 59q139 0 224 -124z" />
    <glyph glyph-name="integral" unicode="&#x222b;" horiz-adv-x="273" 
d="M187 596l-79 -618q-8 -62 -44 -112q-42 -57 -98 -58q-29 0 -43 15q-4 5 -4 11q0 13 14 13q5 0 11 -3q15 -8 26 -8q44 1 53 71l79 618q8 62 44 112q42 57 97 57q29 1 43 -15q5 -5 5 -11q0 -12 -14 -12q-5 0 -11 3q-15 8 -26 7q-44 -1 -53 -70z" />
    <glyph glyph-name="approxequal" unicode="&#x2248;" horiz-adv-x="581" 
d="M98 477h16q51 48 113 49q20 0 56 -24t76 -25q81 -2 105 103h-10q-43 -40 -97 -42q-15 -1 -57 23t-69 24q-102 -2 -133 -108zM98 321h16q49 48 113 49q20 0 56 -24t76 -25q80 -2 105 103h-10q-43 -40 -97 -42q-15 -1 -57 23t-69 24q-102 -2 -133 -108z" />
    <glyph glyph-name="approxequal" unicode="&#x22f2;" horiz-adv-x="581" 
d="M98 477h16q51 48 113 49q20 0 56 -24t76 -25q81 -2 105 103h-10q-43 -40 -97 -42q-15 -1 -57 23t-69 24q-102 -2 -133 -108zM98 321h16q49 48 113 49q20 0 56 -24t76 -25q80 -2 105 103h-10q-43 -40 -97 -42q-15 -1 -57 23t-69 24q-102 -2 -133 -108z" />
    <glyph glyph-name="notequal" unicode="&#x2260;" horiz-adv-x="359" 
d="M188 321h-155v33h180l73 100h42l-73 -100h57v-33h-81l-56 -75h137v-33h-162l-78 -106h-42l78 106h-75v33h99z" />
    <glyph glyph-name="lessequal" unicode="&#x2264;" horiz-adv-x="418" 
d="M246 459q12 10 19 10q5 0 12 -8t7 -12q0 -7 -13 -18l-159 -133q-7 -6 -7 -8q0 -1 8 -8l158 -132q13 -11 13 -18q0 -4 -7 -12t-13 -8q-7 0 -19 10l-182 152q-17 15 -3 29zM108 48q-15 0 -18 1q-7 2 -7 13t7 13q3 1 18 1h169q15 0 18 -1q7 -2 7 -13t-7 -13q-2 -1 -18 -1
h-169z" />
    <glyph glyph-name="greaterequal" unicode="&#x2265;" horiz-adv-x="418" 
d="M138 459q-12 10 -19 10q-5 0 -12 -8t-7 -12q0 -7 13 -18l159 -133q7 -6 7 -8q0 -1 -8 -8l-158 -132q-13 -11 -13 -18q0 -4 7 -12t13 -8q7 0 19 10l182 152q17 15 3 29zM276 48q15 0 18 1q7 2 7 13t-7 13q-3 1 -18 1h-169q-15 0 -18 -1q-7 -2 -7 -13t7 -13q2 -1 18 -1h169
z" />
    <glyph glyph-name="lozenge" unicode="&#x25ca;" horiz-adv-x="506" 
d="M20 325l205 345l205 -335l-205 -335zM224 76l157 257l-157 257l-156 -264z" />
    <glyph glyph-name="apple" unicode="&#xf000;" horiz-adv-x="854" 
d="M646 -28l-219 215l-214 -215h158q24 0 41 -14q7 -6 20 -23q11 37 53 37h161zM337 -165q-76 0 -95 3q-47 6 -87 33q-65 44 -84 128q-11 48 -11 170v243q0 125 10 169q18 84 85 128q41 27 87 33q22 3 95 3h183q73 0 95 -3q46 -7 87 -33q68 -44 86 -128q10 -44 10 -169v-243
q0 -126 -10 -170q-18 -84 -86 -128q-41 -26 -87 -33q-22 -3 -95 -3h-183zM688 364q0 20 17 33t36 12v26h-626v-26q18 1 35 -11q18 -16 18 -34l-1 -341l260 258l261 -262v345zM415 481zM461 482h-2q-2 0 -6 -1t-7 -2q-3 1 -11 1q-4 1 -11 1h-2q-2 3 -6 10q-12 31 -12 37
q0 18 20 18q12 3 21 2q-5 -5 -8 -13q-2 -8 3.5 -17l10.5 -18q1 -2 10 -18zM404 477q-6 -1 -10 -7q-7 8 -17 8t-18 -8q-7 8 -16 8q-13 2 -19 -8q-7 8 -17 8q-11 1 -19 -8q-6 6 -15 7q-11 1 -19.5 -7.5t-5.5 -19.5q2 -7 17 -7q12 -1 20 7q7 -6 15 -7q11 0 19 7q7 -7 16 -7
q12 -1 20 7q7 -7 14 -7q13 -2 20 7q5 -7 15 -8q12 -2 20 8q5 -7 15 -8q13 -2 20 8q5 -6 13 -8q13 -3 21 8q5 -7 14 -8q13 -2 20 8q5 -7 16 -8q12 -1 20 8q5 -7 16 -8q11 -2 19.5 7t5.5 20q-2 7 -18 9q-11 1 -19 -8q-7 8 -17 8q-11 2 -19 -8q-4 6 -16 8q-10 1 -18 -8
q-4 6 -10 7h8q-10 5 -27 5h-2l-12 31q0 2 -5 12q-3 6 -1 11q5 14 18 14q4 0 17 -2.5t20 -1.5q36 5 38 42q1 32 -13 49q-4 6 -27 20q-15 10 -16 24q0 6 17 13q6 2 14 0q11 -3 14 -3q23 -1 42 3l-14 5l14 6q-4 0 -18 2q-7 1 -19 7q-2 5 -11 14q-7 3 -23 3q-18 -2 -29.5 -17
t-11.5 -34q0 -5 1.5 -11t14.5 -15.5t12 -18.5q-1 -7 -11 -10q-11 -2 -27 6.5t-36 9.5q-16 0 -32 -15.5t-23 -15.5q-4 0 -9 2q-9 5 -19 19q-4 5 -7 12q-4 -4 -6 -12t6.5 -19t8.5 -16q-2 -24 -11 -35q12 14 32 12q6 -4 19 -11t28 -11q-3 -3 -7 -12q-2 -4 -2 -9q0 -3 16 -33
q5 -9 7 -16h-3q-2 -1 -3.5 -1t-4.5 -1t-5 -2h5zM439 477q-7 -2 -11 -7q-4 6 -10 7h21zM474 477q-7 -2 -11 -7q-4 6 -11 7h22zM594 325l45 -28h-35l35 -20h-35l32 -20h-32v-20h-20v20h-32l32 20h-32l32 20h-30zM427 91l45 -27h-35l35 -21h-35l32 -19h-32v-20h-20v20h-32
l32 19h-32l32 21h-31zM259 325l45 -28h-35l35 -20h-35l33 -20h-33v-20h-19v20h-33l33 20h-33l33 20h-31z" />
    <glyph glyph-name="fi" unicode="&#xf001;" horiz-adv-x="427" 
d="M166 594v-243q0 -12 16 -12h12.5h16.5q23 0 23 -14q0 -13 -23 -13h-16.5h-12.5q-16 0 -16 -16v-274q0 -16 -13 -20q-5 -2 -25 -2t-25 2q-13 4 -13 20v275q0 15 -18 15h-18q-7 2 -7 13t7 13q3 1 19.5 1t16.5 13v172q0 62 30 111q34 57 90 57q29 0 45 -16q6 -6 6 -12
q0 -11 -12 -11q-6 0 -12 3q-16 8 -27 8q-44 0 -44 -70zM349 0q-21 0 -26 2q-12 4 -12 20v228q0 16 12 20q5 2 26 2q20 0 25 -2q13 -4 13 -20v-228q0 -16 -13 -20q-5 -2 -25 -2zM313 380q0 16 11 27t27 11t27 -11t11 -27t-11 -27t-27 -11t-27 11t-11 27z" />
    <glyph glyph-name="fl" unicode="&#xf002;" horiz-adv-x="376" 
d="M242 339v326q-6 -1 -18 -1q-23 0 -40.5 -22.5t-17.5 -47.5v-242q0 -12 16 -12h25q26 -1 35 -1zM280 0q-20 0 -25 2q-13 4 -13 20v290h-60q-16 0 -16 -16v-274q0 -16 -13 -20q-5 -2 -25 -2t-25 2q-13 4 -13 20v275q0 15 -18 15h-18q-7 2 -7 13t7 13q3 1 19.5 1t16.5 13
v172q0 60 37 111q41 57 97 57h56q20 0 26 -2q12 -4 12 -20v-648q0 -16 -12 -20q-6 -2 -26 -2z" />
    <glyph glyph-name="glyph248" horiz-adv-x="1000" 
 />
    <glyph glyph-name="glyph249" horiz-adv-x="1000" 
 />
    </font>
</defs>
</svg>
